<svg xmlns="http://www.w3.org/2000/svg" viewBox="0 0 200 60"><path fill="#FFF" d="M92.7 9.5c.2-.1.2-.3.2-.4V5.4c0-.4-.1-.8-.2-1.2-.1-.4-.3-.7-.5-1-.2-.2-.5-.5-.8-.6-.4-.2-.8-.2-1.3-.2-.4 0-.8.1-1 .2-.3.2-.5.4-.7.7h-.1V.7c0-.2 0-.3-.2-.4-.1-.1-.3-.2-.6-.2-.2 0-.4.1-.6.2-.2.1-.2.3-.2.4V9c0 .2.1.3.2.4s.4.2.6.2.4-.1.6-.2c.1-.1.2-.3.2-.4V5.4c0-.5.2-.8.4-1.1.3-.2.6-.4 1-.4.5 0 .8.1 1.1.4.2.3.4.6.4 1.1V9c0 .2.1.3.2.4.2.1.4.2.6.2s.5 0 .7-.1zm2.8-.6c.3.2.6.4 1 .6.4.2.8.2 1.3.2.3 0 .6 0 1-.1.3 0 .6-.2.8-.3.2-.1.4-.2.5-.4.1-.2.2-.3.2-.4 0-.2 0-.3-.2-.4-.1-.1-.2-.2-.4-.2-.1 0-.2 0-.3.1-.2 0-.3.1-.4.1-.1 0-.3.1-.5.1h-.7c-.5 0-.9-.1-1.2-.4s-.4-.6-.4-1.1v-.2h3.3c.4 0 .7-.1.8-.3.2-.2.2-.5.3-.9 0-.3 0-.7-.2-1-.1-.4-.3-.6-.5-.9s-.6-.5-.9-.7c-.4-.2-.8-.2-1.4-.2-.5 0-.9.1-1.2.2-.4.2-.7.4-1 .6-.3.3-.5.6-.6 1-.2.4-.2.8-.2 1.2V7c0 .4.1.8.2 1.1.2.2.4.5.7.8zm1.2-4.7c.2-.3.6-.4 1-.4s.8.1 1 .3c.3.2.4.5.4.9v.2h-2.8c0-.4.1-.7.4-1zM79.6 2.1h1.6V9c0 .2.1.3.2.4.1.1.4.2.6.2.2 0 .4-.1.6-.2.1-.1.2-.3.2-.4V2.1h1.8c.3 0 .5-.1.6-.2s.2-.3.2-.5-.1-.4-.2-.6c-.1-.1-.3-.2-.6-.2h-5.1c-.2 0-.4.1-.6.2.1.2 0 .3 0 .6 0 .2 0 .4.2.5.1.1.3.2.5.2zm25 38.5c-.5-.6-1.2-1.1-2-1.4-.8-.4-1.8-.5-2.9-.5-1.2 0-2.1.2-3 .5-.8.4-1.5.8-2 1.4-.6.6-.9 1.3-1.2 2.1-.3.8-.4 1.6-.4 2.6v2c0 .9.1 1.7.4 2.5.3.8.7 1.5 1.2 2s1.2 1 2 1.4c.8.4 1.8.5 3 .5 1.1 0 2.1-.2 2.9-.5.8-.3 1.5-.8 2-1.4.5-.6.9-1.3 1.2-2 .2-.8.4-1.6.4-2.5v-2c0-.9-.1-1.8-.4-2.6-.3-.8-.7-1.5-1.2-2.1zm-1.9 6.7c0 1.1-.3 1.9-.8 2.5-.6.6-1.3.9-2.3.9s-1.8-.3-2.3-.9c-.6-.6-.8-1.4-.8-2.5v-2.1c0-1.2.3-2 .8-2.6s1.3-.9 2.3-.9 1.8.3 2.3.9c.6.6.8 1.5.8 2.6v2.1zm-19.6-8.7c.7-.6 1.5-.9 2.4-.9.6 0 1 .1 1.4.2s.7.3 1 .5.6.4.9.4c.3.1.6.1.9.1.3 0 .6-.1.8-.3.2-.2.4-.5.4-.9s-.1-.8-.4-1.2c-.3-.4-.6-.7-1.1-1s-1-.5-1.7-.7c-.6-.2-1.3-.3-2.1-.3-1.1 0-2.1.2-2.9.6-.9.4-1.6.9-2.2 1.5-.6.6-1 1.4-1.3 2.2-.3.9-.4 1.8-.4 2.7v5.1c0 1 .2 1.9.4 2.7.3.8.8 1.6 1.3 2.2.6.6 1.3 1.2 2.2 1.5s1.8.6 2.9.6c.8 0 1.4-.1 2.1-.3.6-.2 1.2-.4 1.7-.7s.8-.6 1.1-1c.3-.4.4-.8.4-1.2 0-.4-.1-.6-.3-.8-.2-.2-.4-.3-.8-.3h-.5c-.2 0-.3.1-.4.1-.1 0-.2.1-.4.2l-.6.3c-.3.2-.6.3-1 .4-.4.1-.8.1-1.4.1-.9 0-1.7-.3-2.4-.9-.7-.6-1-1.6-1-2.8v-5.5c0-1.1.4-2 1-2.6zm46 1.8c-.4-.6-1-1-1.7-1.3-.7-.3-1.6-.5-2.8-.5-1.2 0-2.1.2-2.8.6-.7.4-1.3 1-1.7 1.6-.4-.7-1-1.2-1.7-1.6-.7-.4-1.6-.6-2.8-.6s-2 .2-2.8.5c-.8.3-1.3.8-1.8 1.3-.4.6-.8 1.2-.9 2-.2.8-.3 1.6-.3 2.5v7.3c0 .4.2.7.5 1 .3.3.7.4 1.2.4s.9-.2 1.2-.4.4-.6.4-1v-7.4c0-1.1.2-1.8.6-2.4.4-.5 1.1-.8 2-.8 1.7 0 2.5 1 2.5 3.1v7.7c.1.3.3.6.6.8.3.2.7.3 1.1.3h.2c.3 0 .6-.1.8-.2.2-.1.4-.3.6-.5l.1-.1v-8c0-2.1.8-3.1 2.5-3.1.9 0 1.6.2 2 .8.4.5.6 1.3.6 2.4v7.4c0 .4.2.7.4 1 .3.3.7.4 1.2.4.6 0 1-.2 1.3-.4.3-.3.4-.6.4-1V45c0-.9-.1-1.7-.3-2.5.1-.8-.2-1.5-.6-2.1zm18.8 4.8c0-.9-.1-1.8-.4-2.6-.3-.8-.7-1.5-1.2-2.1-.5-.6-1.2-1.1-2.1-1.4-.8-.4-1.8-.5-3-.5-1.1 0-2 .2-2.8.4s-1.5.7-2 1.2-.9 1.1-1.2 1.8c-.3.7-.4 1.5-.4 2.3v14c0 .4.2.7.5 1 .3.3.7.4 1.2.4s.9-.2 1.2-.4c.3-.3.4-.6.4-1V52h.2c.4.5.9.8 1.5 1.1.6.3 1.2.4 2 .4 1 0 2-.2 2.7-.5.7-.4 1.4-.8 1.8-1.4.5-.6.8-1.3 1.1-2.1.2-.8.4-1.6.3-2.6l.2-1.7zm-3.4 2c0 1-.3 1.9-.9 2.5-.6.6-1.4.9-2.4.9-.8 0-1.6-.2-2.2-.8-.6-.5-.9-1.3-.9-2.4v-3.1c0-.9.3-1.5.9-1.9.6-.4 1.3-.6 2.2-.6 1 0 1.8.3 2.4.9.6.6.9 1.4.9 2.5v2zm53.3-7.2c0-.4-.2-.7-.5-1-.3-.3-.7-.4-1.2-.4s-.9.1-1.2.4-.4.6-.4.8v8.6c-.2.7-.6 1.2-1.1 1.6-.5.4-1.2.5-1.8.5-1 0-1.7-.2-2.1-.7-.4-.5-.6-1.2-.6-2.1V40c0-.4-.2-.7-.5-1-.3-.3-.7-.4-1.2-.4s-.9.2-1.2.4-.5.6-.5 1v7.7c0 .9.1 1.7.2 2.4.2.7.4 1.4.8 1.9.4.6 1 1 1.6 1.3.7.3 1.6.4 2.6.4.8 0 1.5-.1 2.1-.4.6-.2 1-.6 1.5-1.1h.2v2.2c0 .8-.2 1.4-.7 1.8-.4.4-1.1.6-2 .6-.7 0-1.2 0-1.8-.1-.5-.1-.9-.1-1.1-.1-.5 0-.9.1-1.2.4-.3.2-.4.6-.4 1 0 .6.3 1.1 1 1.5.3.1.7.2 1.2.3s1.3.1 2.2.1c.8 0 1.6-.1 2.4-.3.7-.2 1.4-.5 1.9-1 .6-.4 1-1 1.3-1.7.3-.7.5-1.5.4-2.4l.1-14.5zm-18.2.3c-.5-.5-1.2-1-2-1.2s-1.7-.4-2.8-.4-2 .2-2.8.5c-.8.3-1.4.8-2 1.3-.5.6-.9 1.2-1.2 2-.3.8-.4 1.6-.4 2.5v7.3c0 .4.2.7.5 1 .3.3.7.4 1.2.4s.9-.2 1.2-.4c.3-.3.4-.6.4-1v-7.5c0-1.1.3-1.8.9-2.4.6-.5 1.3-.8 2.2-.8s1.6.2 2.2.8c.6.5.8 1.3.8 2.4v7.5c0 .4.2.7.5 1 .3.3.7.4 1.2.4s.9-.2 1.2-.4.5-.6.5-.9v-7.7c0-.9-.1-1.7-.4-2.5-.2-.7-.7-1.4-1.2-1.9zm-16.9-.1c-.5-.5-1.1-.9-1.9-1.2-.8-.3-1.7-.4-2.8-.4-1.2 0-2.2.2-3 .6s-1.6.9-2.1 1.6-1 1.4-1.3 2.2c-.3.8-.4 1.6-.4 2.4V48c0 .8.1 1.5.3 2.2.2.7.6 1.3 1 1.8s1 1 1.7 1.3c.7.4 1.5.5 2.4.5.6 0 1.1 0 1.5-.1.4-.1.8-.2 1-.4.3-.2.5-.4.7-.6.2-.2.4-.4.6-.7l.3.1v.5c0 .4.2.7.4 1 .3.3.7.4 1.2.4.6 0 1-.2 1.3-.4s.5-.6.5-1.1v-8.1c0-.8-.1-1.6-.4-2.3-.1-.8-.5-1.4-1-1.9zm-1.9 7.1c0 .6-.1 1-.3 1.5-.2.4-.4.8-.8 1-.3.3-.6.5-1 .6-.4.1-.8.2-1.2.2-.8 0-1.4-.2-1.9-.8-.5-.5-.8-1.1-.8-1.8v-2.8c0-.5.1-.9.2-1.3.2-.4.4-.8.7-1.1.3-.3.6-.6 1-.8.4-.2.8-.3 1.4-.3.8 0 1.5.2 2 .6.5.4.7 1.1.7 2v3zM80.5 32.9c.5 0 .9-.2 1.2-.4s.4-.6.4-1V25h4.4c.6 0 1-.2 1.2-.4.2-.3.4-.6.4-1.1 0-.5-.1-.9-.4-1.2-.3-.3-.7-.4-1.2-.4h-4.4V17h6.2c.6 0 1-.2 1.2-.4s.4-.6.4-1c0-.5-.1-.9-.4-1.2-.3-.3-.7-.4-1.2-.4h-7.9c-.5 0-.9.2-1.2.4-.3.3-.5.6-.5 1v16.2c0 .4.2.7.5 1 .4.1.8.3 1.3.3zM200 30.3l-4.6-5.8 3.7-4.1c.3-.2.4-.6.5-1 0-.4-.1-.8-.4-1.2-.4-.4-.8-.5-1.2-.5-.5 0-.8.2-1.1.4l-4.2 5.1h-1.3v-9.1c0-.4-.2-.7-.4-1-.3-.3-.7-.4-1.2-.4s-.9.2-1.2.4c-.3.3-.5.6-.5 1v17.3c0 .4.2.7.5 1 .3.3.7.4 1.2.4s.9-.2 1.2-.4c.3-.3.4-.6.4-1v-5.2h1.3l4.7 6.1c.2.2.6.4 1 .5.4 0 .8 0 1.2-.3.5-.3.7-.7.8-1.1-.1-.4-.2-.7-.4-1.1zm-15.9-.9c-.2-.2-.5-.4-.8-.5-.4-.1-.8 0-1.2.2-.2.1-.6.2-1 .4-.4.1-.8.2-1.4.2-1 0-1.7-.3-2.2-.9-.5-.6-.8-1.4-.8-2.4v-2.1c0-1 .2-1.8.8-2.4.5-.6 1.2-.9 2.2-.9.5 0 .9.1 1.3.2.4.2.7.3 1 .4.5.3 1 .4 1.4.2.4-.1.6-.3.8-.6.2-.3.2-.6.2-1s-.2-.7-.4-1c-.4-.4-1-.8-1.7-1s-1.6-.4-2.6-.4c-1.1 0-2.1.2-2.9.5-.8.3-1.5.8-2 1.4-.5.6-.9 1.2-1.2 2-.2.8-.4 1.6-.4 2.4v2.4c0 .9.1 1.7.4 2.4.2.8.6 1.4 1.2 2 .5.6 1.2 1 2 1.4.8.3 1.8.5 2.9.5.9 0 1.8-.1 2.6-.4.8-.3 1.4-.6 1.8-1.2.2-.4.4-.7.3-1 0-.3-.1-.5-.3-.8zm-31.1-.6c.2-.8.4-1.7.4-2.6v-1.7c0-1-.1-1.9-.4-2.7s-.6-1.6-1.1-2.2c-.5-.6-1.2-1.1-1.9-1.4-.8-.4-1.7-.5-2.8-.5-.7 0-1.4.1-2 .4-.6.3-1 .6-1.4 1.1l-.2-.1v-5c0-.4-.2-.7-.4-1-.3-.3-.7-.4-1.2-.4s-.9.2-1.2.4c-.3.3-.5.6-.5 1V27c0 .8.1 1.6.4 2.3.3.7.7 1.3 1.2 1.8.6.5 1.2.9 2.1 1.2.8.3 1.8.4 2.9.4 1.1 0 2-.2 2.8-.5.8-.4 1.4-.8 2-1.4.6-.5 1-1.2 1.3-2zm-3.1-2.5c0 1-.3 1.9-.8 2.5-.6.6-1.3.9-2.2.9s-1.7-.2-2.4-.6c-.6-.4-1-1-1-1.9v-3.3c0-1 .4-1.8.9-2.2.6-.5 1.3-.7 2.1-.7 1 0 1.8.3 2.4 1 .6.6.9 1.5.9 2.7v1.6h.1zm-13.9.2V14c0-.4-.2-.7-.5-1-.3-.3-.8-.4-1.3-.4s-.9.2-1.2.4-.4.6-.4 1v5.3h-.2c-.4-.4-.9-.8-1.5-1.2-.6-.3-1.3-.5-2.1-.5-1.1 0-2 .2-2.7.5-.8.4-1.4.8-1.8 1.4-.5.6-.8 1.3-1.1 2.1-.2.8-.4 1.6-.4 2.6v1.9c0 .9.1 1.8.4 2.6.3.8.7 1.5 1.2 2.1.6.6 1.2 1 2.1 1.4.8.4 1.8.5 3 .5 1.1 0 2-.2 2.8-.5.8-.3 1.5-.8 2-1.3.5-.6.9-1.2 1.2-2 .3-.6.5-1.5.5-2.4zm-3.4.1c0 1.1-.3 1.8-.9 2.3-.6.5-1.3.7-2.2.7-1 0-1.8-.3-2.4-.9-.6-.6-.9-1.4-.9-2.4v-2.1c0-1 .3-1.8.9-2.4.6-.6 1.4-.9 2.4-.9.8 0 1.5.2 2.1.7s.9 1.2 1 2.2v2.8zm-18.7 6.2c.7 0 1.4-.1 2-.2.6-.2 1.2-.4 1.6-.6.5-.2.8-.5 1.1-.8.3-.3.4-.6.4-.9 0-.4-.2-.6-.4-.9-.2-.2-.5-.4-.9-.4-.2 0-.4.1-.7.2-.3.1-.5.3-.8.4-.3.1-.6.2-1 .3-.4.1-.9.1-1.4.1-1 0-1.8-.3-2.4-.8-.6-.6-.8-1.3-.8-2.2v-.8h6.9c.8 0 1.4-.2 1.7-.6.4-.4.5-1 .6-1.9 0-.6-.1-1.4-.4-2-.2-.7-.6-1.3-1.1-1.9-.5-.6-1.1-1-1.9-1.4-.8-.4-1.7-.5-2.8-.5-.9 0-1.8.2-2.6.5s-1.4.8-2 1.3c-.6.6-1 1.2-1.3 2-.3.8-.5 1.6-.5 2.4V27c0 .8.2 1.5.5 2.2.3.7.8 1.3 1.4 1.8.6.5 1.3.9 2.1 1.2.8.5 1.7.6 2.7.6zm-2.4-11.4c.5-.6 1.2-.8 2.1-.8.9 0 1.6.2 2.1.7.6.4.8 1.1.8 1.9v.5h-5.9c.1-1 .3-1.7.9-2.3zm58.2 10.1v-8.1c0-.8-.1-1.6-.4-2.3s-.6-1.3-1.1-1.8-1.1-.9-1.9-1.2c-.8-.3-1.7-.4-2.8-.4-1.2 0-2.2.2-3 .6-.8.4-1.6.9-2.1 1.6-.6.6-1 1.4-1.3 2.2-.3.8-.4 1.6-.4 2.4v2.6c0 .8.1 1.5.3 2.2.2.7.6 1.3 1 1.8.4.6 1 1 1.7 1.3.7.4 1.5.5 2.4.5.6 0 1.1 0 1.5-.1.4-.1.8-.2 1-.4.3-.2.5-.4.7-.6.2-.2.4-.4.6-.7l.3.1v.5c0 .4.2.7.4 1 .3.3.7.4 1.2.4.6 0 1-.2 1.3-.4.4-.4.5-.8.6-1.2zm-3.4-5.2c0 .6-.1 1-.3 1.5-.2.4-.4.8-.8 1-.3.3-.6.5-1 .6-.4.1-.8.2-1.2.2-.8 0-1.4-.2-1.9-.8-.5-.5-.8-1.1-.8-1.8v-2.8c0-.5.1-.9.2-1.3.2-.4.4-.8.7-1.1.3-.3.6-.6 1-.8s.8-.3 1.4-.3c.8 0 1.5.2 2 .6.5.4.7 1.1.7 2v3zm-72.7 4.8c.6.5 1.3.9 2.1 1.2s1.7.5 2.7.5c.7 0 1.4-.1 2-.2.6-.2 1.2-.4 1.6-.6.4-.2.8-.5 1.1-.8.3-.3.4-.6.4-.9 0-.4-.2-.6-.4-.9-.2-.2-.5-.4-.9-.4-.2 0-.4.1-.7.2-.3.1-.5.3-.8.4-.3.1-.6.2-1 .3-.4.1-.9.1-1.4.1-1 0-1.8-.3-2.4-.8-.6-.6-.8-1.3-.8-2.2v-.8h6.9c.8 0 1.4-.2 1.7-.6.4-.4.6-1 .6-1.9 0-.6-.1-1.4-.4-2-.2-.7-.6-1.3-1.1-1.9-.5-.6-1.1-1-1.9-1.4-.8-.4-1.7-.5-2.8-.5-.9 0-1.8.2-2.6.5s-1.4.8-2 1.3c-.6.6-1 1.2-1.3 2-.3.8-.5 1.6-.5 2.4V27c0 .8.2 1.5.5 2.2.3.8.8 1.4 1.4 1.9zm2.3-9.7c.5-.6 1.2-.8 2.1-.8.9 0 1.6.2 2.1.7.6.4.8 1.1.8 1.9v.5H95c.1-1 .4-1.7.9-2.3z"/><path fill="#30A849" d="M65.8 0H31.6c-2.2 0-4.1 1.8-4.1 4.1V28c0 2.2 1.8 4.1 4.1 4.1h17.6L59 42.6V32.1h6.7c2.2 0 4.1-1.8 4.1-4.1V4.2c.1-2.3-1.8-4.2-4-4.2z"/><path fill="#C4E5F1" d="M21.7 9.9H2.3C1 9.9 0 10.9 0 12.2v12.7c0 1.3 1 2.3 2.3 2.3h7.5v5.5l5.3-5.5h6.6c1.3 0 2.3-1 2.3-2.3V12.2c0-1.2-1-2.3-2.3-2.3z"/><path fill="#50C0E5" d="M42.7 22H19.5c-1.3 0-2.3 1-2.3 2.3v15.8c0 1.3 1 2.3 2.3 2.3h9.1v6.9l6.1-6.9h8c1.3 0 2.3-1 2.3-2.3V24.4c.1-1.3-1-2.4-2.3-2.4z"/></svg>