<?xml version="1.0" encoding="utf-8"?>
<!-- Generator: Adobe Illustrator 20.1.0, SVG Export Plug-In . SVG Version: 6.00 Build 0)  -->
<svg version="1.1" id="Layer_1" xmlns="http://www.w3.org/2000/svg" xmlns:xlink="http://www.w3.org/1999/xlink" x="0px" y="0px"
	 viewBox="0 0 199.8 98.6" style="enable-background:new 0 0 199.8 98.6;" xml:space="preserve">
<style type="text/css">
	.st0{fill:#A5A5A5;}
	.st1{fill:#FFC110;}
	.st2{fill:#F78C2A;}
	.st3{fill:#F8991D;}
	.st4{fill:#F04B23;}
	.st5{fill:#F36D26;}
	.st6{fill:#84C441;}
	.st7{clip-path:url(#SVGID_2_);}
	.st8{fill:#C0D62F;}
	.st9{fill:#EBE515;}
	.st10{fill:#35B44A;}
</style>
<title>klanten_vertellen_logo</title>
<polygon class="st0" points="1.8,40.8 4.5,40.8 4.5,58.5 14.3,48.2 17.6,48.2 10,56 17.9,66.4 14.7,66.4 8.2,57.9 4.5,61.7 
	4.5,66.4 1.8,66.4 1.8,40.8 "/>
<polygon class="st0" points="21.1,40.8 23.8,40.8 23.8,66.4 21.1,66.4 21.1,40.8 "/>
<path class="st0" d="M43.9,57.3L43.9,57.3c0.1-3.7-2.8-6.9-6.5-7c0,0-0.1,0-0.1,0c-3.5,0-6.4,2.6-6.4,7l0,0c0,4.3,3,7,6.4,7
	C41.1,64.2,44.1,61.1,43.9,57.3C44,57.3,44,57.3,43.9,57.3L43.9,57.3z M28.2,57.3L28.2,57.3c0-5.9,4.3-9.5,8.7-9.5
	c2.8,0,5.5,1.4,7,3.9v-3.5h2.7v18.2h-2.8v-3.7c-1.5,2.5-4.1,4-7,4C32.5,66.8,28.1,63.3,28.2,57.3L28.2,57.3z"/>
<path class="st0" d="M51.7,48.2h2.7v3.2c1.2-2.3,3.6-3.6,6.2-3.5c4.4,0,7,3,7,7.3v11.3h-2.8V55.8c0-3.4-1.8-5.5-5-5.5
	c-2.9-0.1-5.4,2.2-5.5,5.2c0,0.2,0,0.3,0,0.5v10.4h-2.7V48.2z"/>
<path class="st0" d="M73.4,61.6v-11h-2.5v-2.4h2.5v-5.5h2.7v5.5h5.8v2.4h-5.8v10.6c0,2.2,1.2,3,3.1,3c0.9,0,1.8-0.2,2.6-0.6v2.3
	c-1,0.5-2.1,0.8-3.3,0.8C75.6,66.7,73.4,65.3,73.4,61.6L73.4,61.6z"/>
<path class="st0" d="M98.6,56.3c-0.3-3.3-2.2-6.2-5.8-6.2c-3.2,0-5.6,2.6-5.9,6.2H98.6z M84.1,57.4L84.1,57.4c0-5.3,3.7-9.5,8.7-9.5
	c5.4,0,8.5,4.3,8.5,9.6c0,0.3,0,0.6,0,0.9H86.9c0.4,3.9,3.2,6.2,6.4,6.2c2.2,0,4.3-0.9,5.8-2.6l1.7,1.5c-1.8,2.2-4.6,3.5-7.5,3.4
	C88.2,66.8,84.1,63,84.1,57.4L84.1,57.4z"/>
<path class="st0" d="M105.2,48.2h2.7v3.2c1.2-2.3,3.6-3.6,6.2-3.5c4.4,0,7,3,7,7.3v11.3h-2.7V55.8c0-3.4-1.8-5.5-5-5.5
	c-2.9-0.1-5.4,2.3-5.5,5.2c0,0.2,0,0.3,0,0.5v10.4h-2.7L105.2,48.2L105.2,48.2z"/>
<polygon class="st0" points="0,79.6 4.6,79.6 9.6,93.3 14.6,79.6 19,79.6 11.4,98.3 7.6,98.3 0,79.6 "/>
<path class="st0" d="M34.1,87.6c-0.3-2.7-1.9-4.9-4.7-4.9c-2.6,0-4.4,2-4.8,4.9H34.1z M20.3,89L20.3,89c0-5.4,3.8-9.7,9.1-9.7
	c5.9,0,8.9,4.6,8.9,10c0,0.4,0,0.8-0.1,1.2H24.6c0.2,2.7,2.6,4.8,5.3,4.7c1.9,0,3.7-0.8,5-2.2l2.5,2.2c-1.8,2.3-4.7,3.6-7.6,3.5
	c-5.1,0.1-9.4-3.9-9.5-9C20.3,89.4,20.3,89.2,20.3,89L20.3,89z"/>
<path class="st0" d="M42.3,79.6h4.2v4.2c1.2-2.8,3.3-4.7,6.6-4.5v4.5h-0.2c-3.7,0-6.3,2.4-6.3,7.3v7.1h-4.2V79.6z"/>
<path class="st0" d="M57.5,93.1v-9.8h-2.4v-3.7h2.3v-5.1h4.2v5.1h5v3.7h-5v9.1c-0.2,1.1,0.6,2.1,1.7,2.3c0.2,0,0.4,0,0.6,0
	c0.9,0,1.8-0.2,2.6-0.6v3.5c-1.2,0.7-2.5,1-3.8,0.9C59.7,98.5,57.5,97.1,57.5,93.1L57.5,93.1z"/>
<path class="st0" d="M83,87.6c-0.3-2.7-1.9-4.9-4.7-4.9c-2.6,0-4.4,2-4.8,4.9H83z M69.2,89L69.2,89c0-5.4,3.8-9.7,9.1-9.7
	c5.9,0,8.9,4.6,8.9,10c0,0.4,0,0.8-0.1,1.2H73.5c0.2,2.7,2.6,4.8,5.3,4.7c1.9,0,3.7-0.8,5-2.2l2.5,2.2c-1.8,2.3-4.7,3.6-7.6,3.5
	c-5.1,0.1-9.4-3.9-9.5-9C69.2,89.4,69.2,89.2,69.2,89L69.2,89z"/>
<polygon class="st0" points="91.5,72.5 95.7,72.5 95.7,98.2 91.5,98.2 91.5,72.5 "/>
<polygon class="st0" points="101.3,72.5 105.5,72.5 105.5,98.2 101.3,98.2 101.3,72.5 "/>
<path class="st0" d="M123.6,87.6c-0.3-2.7-1.9-4.9-4.7-4.9c-2.6,0-4.4,2-4.8,4.9H123.6z M109.8,89L109.8,89c0-5.4,3.8-9.7,9.1-9.7
	c5.9,0,8.9,4.6,8.9,10c0,0.4,0,0.8-0.1,1.2h-13.6c0.2,2.7,2.6,4.8,5.3,4.7c1.9,0,3.7-0.8,5-2.2l2.5,2.2c-1.8,2.3-4.7,3.6-7.6,3.5
	c-5.1,0.1-9.4-3.9-9.5-9C109.8,89.4,109.8,89.2,109.8,89L109.8,89z"/>
<path class="st0" d="M131.8,79.6h4.2v2.8c1.2-2,3.4-3.3,5.8-3.2c4.2,0,6.6,2.8,6.6,7.1v11.8h-4.2V87.6c0-2.9-1.4-4.5-4-4.5
	s-4.2,1.7-4.2,4.6v10.5h-4.2L131.8,79.6L131.8,79.6z"/>
<path class="st1" d="M155.6,13.9l-5.3-10.2c-9,4.7-15.4,13.3-17.2,23.3l11.6,2.1C145.6,22.7,149.7,17,155.6,13.9L155.6,13.9z"/>
<path class="st2" d="M144.4,32.5c0-1.1,0.1-2.2,0.2-3.2L133,27.1c-0.8,4.4-0.7,9,0.3,13.4l11.7-2.7C144.5,36,144.3,34.2,144.4,32.5
	L144.4,32.5z"/>
<path class="st3" d="M145,37.8l-11.7,2.7c0.8,3.5,2.2,6.9,4.1,10l10.4-6.5C146.5,42.1,145.6,40,145,37.8z"/>
<path class="st4" d="M147.9,44l-10.4,6.5c1.5,2.5,3.4,4.7,5.5,6.7c-3.7,1.1-7.6,2-11.4,2.6c5.1,3.3,10.8,5.6,16.8,6.7l7.8-15.2
	C152.8,49.7,149.9,47.2,147.9,44L147.9,44z"/>
<path class="st5" d="M165.3,53.4c-3.2,0-6.3-0.7-9.1-2.1l-7.8,15.2c5.6,1.2,11.4,1.4,17.2,0.7V53.4L165.3,53.4z"/>
<path class="st6" d="M165.5,53.4v13.8c3.2-0.4,6.3-1.1,9.3-2.1l0,0c2.8-0.8,5.5-2.1,8-3.6l-6.8-11.1
	C172.9,52.3,169.2,53.3,165.5,53.4L165.5,53.4z"/>
<g>
	<defs>
		<rect id="SVGID_1_" x="-1.3" y="0" width="199.8" height="98.6"/>
	</defs>
	<clipPath id="SVGID_2_">
		<use xlink:href="#SVGID_1_"  style="overflow:visible;"/>
	</clipPath>
	<g class="st7">
		<path class="st8" d="M184.9,32.5c0,7.3-3.8,14.1-10.1,17.9l6.8,11.1c4.7-3,8.6-7.1,11.4-12l0,0c4-7.1,5.3-15.4,3.6-23.4l-12,2.6
			C184.7,29.9,184.8,31.2,184.9,32.5L184.9,32.5z"/>
		<path class="st9" d="M164.6,0c-5.5-0.1-10.9,1.2-15.7,3.8l5.3,10.2c10.2-5.4,22.9-1.4,28.3,8.8c1,1.9,1.7,3.9,2.1,6l12-2.6
			C193.3,11,180.1,0.2,164.6,0z"/>
	</g>
</g>
<path class="st10" d="M164.4,31l-6-9h-10.3l14.5,22.3h8.4c4.6-22.5,10.3-33.7,28.7-41.8C182.9,3,169.1,15.5,164.4,31L164.4,31z"/>
</svg>
