<svg xmlns="http://www.w3.org/2000/svg" xmlns:xlink="http://www.w3.org/1999/xlink" viewBox="0 0 199.77 98.6"><defs><clipPath id="a" transform="translate(0 -0.7)"><rect y="0.7" width="199.77" height="98.6" style="fill:none"/></clipPath></defs><title>klanten_vertellen_logo</title><polygon points="1.77 40.76 4.47 40.76 4.47 58.46 14.28 48.24 17.65 48.24 10.03 56.04 17.9 66.41 14.66 66.41 8.16 57.94 4.47 61.66 4.47 66.41 1.77 66.41 1.77 40.76 1.77 40.76" style="fill:#3e3f41"/><polygon points="21.13 40.76 23.83 40.76 23.83 66.41 21.13 66.41 21.13 40.76 21.13 40.76" style="fill:#3e3f41"/><path d="M43.93,58V58a6.75,6.75,0,0,0-6.57-7C33.85,51,31,53.58,31,58V58c0,4.29,3,7,6.39,7a6.78,6.78,0,0,0,6.57-7Zm-15.74,0V58c0-5.94,4.32-9.45,8.68-9.45a8.2,8.2,0,0,1,7,3.86V48.94h2.71V67.11H43.82V63.45a8.17,8.17,0,0,1-7,4c-4.36,0-8.68-3.44-8.68-9.42Z" transform="translate(0 -0.7)" style="fill:#3e3f41"/><path d="M51.69,48.94H54.4V52.1a6.88,6.88,0,0,1,6.22-3.55c4.39,0,7,3,7,7.27V67.11H64.87V56.5c0-3.37-1.83-5.48-5-5.48A5.34,5.34,0,0,0,54.4,56.7v10.4H51.69V48.94Z" transform="translate(0 -0.7)" style="fill:#3e3f41"/><path d="M73.41,62.29v-11H70.88V48.94h2.53V43.46h2.71v5.48h5.76v2.39H76.11V61.94c0,2.21,1.23,3,3.06,3a5.69,5.69,0,0,0,2.63-.63v2.32a6.81,6.81,0,0,1-3.27.77c-2.92,0-5.13-1.44-5.13-5.13Z" transform="translate(0 -0.7)" style="fill:#3e3f41"/><path d="M98.56,57c-.28-3.3-2.18-6.18-5.8-6.18-3.16,0-5.55,2.63-5.9,6.18ZM84.12,58.08V58c0-5.24,3.69-9.45,8.71-9.45,5.38,0,8.47,4.29,8.47,9.59a7.08,7.08,0,0,1,0,.88H86.86c.39,3.93,3.16,6.15,6.39,6.15A7.51,7.51,0,0,0,99,62.61l1.69,1.51a9.37,9.37,0,0,1-7.48,3.41c-5,0-9.07-3.83-9.07-9.45Z" transform="translate(0 -0.7)" style="fill:#3e3f41"/><path d="M105.17,48.94h2.7V52.1a6.88,6.88,0,0,1,6.22-3.55c4.39,0,7,3,7,7.27V67.11h-2.71V56.5c0-3.37-1.83-5.48-5-5.48a5.34,5.34,0,0,0-5.45,5.69v10.4h-2.7V48.94Z" transform="translate(0 -0.7)" style="fill:#3e3f41"/><polygon points="0 79.63 4.57 79.63 9.56 93.26 14.58 79.63 19.04 79.63 11.45 98.32 7.62 98.32 0 79.63 0 79.63" style="fill:#3e3f41"/><path d="M34.08,88.3c-.28-2.74-1.9-4.88-4.71-4.88-2.6,0-4.43,2-4.81,4.88ZM20.34,89.67V89.6c0-5.31,3.76-9.66,9.06-9.66,5.9,0,8.89,4.64,8.89,10,0,.39,0,.77-.07,1.19H24.59a5.18,5.18,0,0,0,5.34,4.71,6.73,6.73,0,0,0,5-2.21l2.49,2.21a9.38,9.38,0,0,1-7.59,3.48,9.26,9.26,0,0,1-9.52-9.63Z" transform="translate(0 -0.7)" style="fill:#3e3f41"/><path d="M42.33,80.33h4.25v4.18c1.16-2.78,3.3-4.67,6.57-4.53v4.5h-.25c-3.72,0-6.32,2.42-6.32,7.34v7.06H42.33V80.33Z" transform="translate(0 -0.7)" style="fill:#3e3f41"/><path d="M57.48,93.75V84H55.12V80.33h2.35v-5.1h4.25v5.1h5V84h-5v9.1A2,2,0,0,0,64,95.4a5.7,5.7,0,0,0,2.64-.63v3.48a7.36,7.36,0,0,1-3.83.95c-3.13,0-5.34-1.37-5.34-5.45Z" transform="translate(0 -0.7)" style="fill:#3e3f41"/><path d="M83,88.3c-.28-2.74-1.9-4.88-4.71-4.88-2.6,0-4.43,2-4.81,4.88ZM69.25,89.67V89.6c0-5.31,3.76-9.66,9.06-9.66,5.9,0,8.89,4.64,8.89,10,0,.39,0,.77-.07,1.19H73.5a5.18,5.18,0,0,0,5.34,4.71,6.73,6.73,0,0,0,5-2.21l2.49,2.21a9.38,9.38,0,0,1-7.59,3.48,9.26,9.26,0,0,1-9.52-9.63Z" transform="translate(0 -0.7)" style="fill:#3e3f41"/><polygon points="91.49 72.53 95.74 72.53 95.74 98.18 91.49 98.18 91.49 72.53 91.49 72.53" style="fill:#3e3f41"/><polygon points="101.29 72.53 105.54 72.53 105.54 98.18 101.29 98.18 101.29 72.53 101.29 72.53" style="fill:#3e3f41"/><path d="M123.56,88.3c-.28-2.74-1.9-4.88-4.71-4.88-2.6,0-4.43,2-4.81,4.88Zm-13.74,1.37V89.6c0-5.31,3.76-9.66,9.06-9.66,5.9,0,8.89,4.64,8.89,10,0,.39,0,.77-.07,1.19H114.08a5.18,5.18,0,0,0,5.34,4.71,6.73,6.73,0,0,0,5-2.21l2.49,2.21a9.38,9.38,0,0,1-7.59,3.48,9.26,9.26,0,0,1-9.52-9.63Z" transform="translate(0 -0.7)" style="fill:#3e3f41"/><path d="M131.82,80.33h4.25v2.85a6.72,6.72,0,0,1,5.8-3.23c4.18,0,6.61,2.81,6.61,7.1V98.88h-4.25V88.34c0-2.88-1.44-4.53-4-4.53s-4.18,1.72-4.18,4.6V98.88h-4.25V80.33Z" transform="translate(0 -0.7)" style="fill:#3e3f41"/><path d="M155.55,14.61,150.24,4.45A33.09,33.09,0,0,0,133,27.76l11.58,2.14a21,21,0,0,1,10.94-15.28Z" transform="translate(0 -0.7)" style="fill:#ffc110"/><path d="M144.36,33.15a21,21,0,0,1,.25-3.25L133,27.76a33.28,33.28,0,0,0,.29,13.39L145,38.46a21,21,0,0,1-.68-5.31Z" transform="translate(0 -0.7)" style="fill:#f78c2a"/><path d="M145,38.46l-11.72,2.69a32.88,32.88,0,0,0,4.13,10l10.4-6.45A20.82,20.82,0,0,1,145,38.46Z" transform="translate(0 -0.7)" style="fill:#f8991d"/><path d="M147.85,44.72l-10.4,6.45a33.27,33.27,0,0,0,5.5,6.71,83.47,83.47,0,0,1-11.41,2.59,47.82,47.82,0,0,0,16.84,6.72L156.18,52a21,21,0,0,1-8.33-7.27Z" transform="translate(0 -0.7)" style="fill:#f04b23"/><path d="M165.29,54.08A20.84,20.84,0,0,1,156.18,52l-7.8,15.19a52.12,52.12,0,0,0,17.16.69V54.07Z" transform="translate(0 -0.7)" style="fill:#f36d26"/><path d="M165.54,54.07V67.88a52.71,52.71,0,0,0,9.33-2.06v0a32.17,32.17,0,0,0,8-3.64l-6.78-11.1a20.83,20.83,0,0,1-10.58,3Z" transform="translate(0 -0.7)" style="fill:#84c441"/><g style="clip-path:url(#a)"><path d="M186.21,33.15a20.91,20.91,0,0,1-10.1,17.92l6.78,11.1a33.69,33.69,0,0,0,11.36-12l0,0a33.37,33.37,0,0,0,3.57-23.37l-12,2.58a21.09,21.09,0,0,1,.34,3.77Z" transform="translate(0 -0.7)" style="fill:#c0d62f"/><path d="M165.93.7a32.91,32.91,0,0,0-15.69,3.75l5.31,10.17a20.94,20.94,0,0,1,30.33,14.76l12-2.58A33,33,0,0,0,165.93.7Z" transform="translate(0 -0.7)" style="fill:#ebe515"/></g><path d="M164.4,31.67l-6-9H148.12L162.64,45l8.42,0c4.62-22.49,10.29-33.67,28.7-41.81-16.89.52-30.61,13-35.37,28.46Z" transform="translate(0 -0.7)" style="fill:#35b44a"/></svg>