<svg xmlns="http://www.w3.org/2000/svg" viewBox="0 0 364.9 72.2"><title>logo_footer</title><path d="M22.9,5.9c-.2,1.4-.3,2.8-.4,4.3l-.4.2a9.91,9.91,0,0,0-1.7-1.1,9.4,9.4,0,0,0-4.4-1,9.75,9.75,0,0,0-4.9,1.3C5.6,13,5.8,21.7,5.8,22.6c0,1.3-.1,7.4,3.8,11.2a8.81,8.81,0,0,0,6.5,2.5,9.56,9.56,0,0,0,6.6-2.4l.4.2a32.91,32.91,0,0,0-.3,4.5l-.2.4a14.8,14.8,0,0,1-7.3,1.7c-4.1,0-7.5-1.1-10.4-4.2C2.7,34.2.2,30.2.2,22.8.2,12.2,5,7.1,9.5,5.2A16.34,16.34,0,0,1,15.6,4a17.5,17.5,0,0,1,7,1.4ZM48,37.4a11.89,11.89,0,0,1-8.7,3.3,15.39,15.39,0,0,1-6-1.2c-6.3-3.1-7.9-11-7.9-17.3,0-1.3-.1-10.4,5.3-15.2a12.45,12.45,0,0,1,8.5-2.9,12.75,12.75,0,0,1,4.8.8c4.7,1.8,8.7,6.8,8.9,17.4C52.9,30.3,50.6,34.8,48,37.4ZM45.2,11.8C43.2,8.4,40.7,8,39.1,8a6.94,6.94,0,0,0-3.8,1.1c-4.7,3.4-4.5,12.8-4.5,13,0,.8,0,7.5,2.8,11.5a6.74,6.74,0,0,0,5.8,3.1,7.31,7.31,0,0,0,3.4-.9c2.9-1.8,4.7-6.3,4.7-13.5C47.4,19,47,14.8,45.2,11.8ZM78,13.9c.8-2.9,1.6-6,2.3-9l.4-.3c2.2,0,4.4-.1,6.6-.1l.4.3c0,4.1.2,8.2.3,12.2l.3,8c.2,4.9.4,9.8.7,14.7l-.3.3c-1.7,0-3.3,0-4.9.1l-.3-.3c0-4.3-.1-8.5-.1-12.8L83.1,8.8,78,28.8c-.9,3.7-1.9,7.3-2.8,10.9l-.4.3c-1.5,0-3.1,0-4.7.1l-.4-.3c-.9-3.6-1.7-7.1-2.6-10.7l-4.6-20L62,25l-.3,9.5c-.1,1.2-.1,2.5-.1,3.7v1.5l-.3.3c-1.4,0-2.8.1-4.2.1l-.3-.3c.4-4.4.6-8.8.9-13.2l.5-11.1c.1-1.5.1-3.1.2-4.7.1-2,.2-3.9.2-5.9l.4-.3c2.2,0,4.5-.1,6.8-.1l.4.3c.5,2.6,1.2,5.2,1.9,7.7L73,33ZM100.6,40c-1.7,0-3.3.1-5,.1l-.3-.3c.2-7.2.1-14.4.1-21.6-.1-4.5-.1-8.9-.4-13.3l.3-.3c1.4,0,2.9,0,4.4.1h6.9c2.1-.1,4.3-.1,6.4-.1l.3.3L113,8.5l-.4.3c-2.9-.2-5.8-.2-8.6-.2h-3.6c0,3.9.1,7.8.1,11.8H103c2.6-.1,5-.1,7.6-.2l.3.3-.3,3.5-.4.3c-2.6-.2-5-.1-7.6-.1l-2.2.1.3,15.6Zm37.2-2.6a11.89,11.89,0,0,1-8.7,3.3,15.39,15.39,0,0,1-6-1.2c-6.3-3.1-7.9-11-7.9-17.3,0-1.3-.1-10.4,5.3-15.2A12.45,12.45,0,0,1,129,4.1a12.75,12.75,0,0,1,4.8.8c4.7,1.8,8.7,6.8,8.9,17.4C142.7,30.3,140.4,34.8,137.8,37.4ZM135,11.8c-2-3.4-4.5-3.8-6.1-3.8a6.94,6.94,0,0,0-3.8,1.1c-4.7,3.4-4.5,12.8-4.5,13,0,.8,0,7.5,2.8,11.5a6.74,6.74,0,0,0,5.8,3.1,7.31,7.31,0,0,0,3.4-.9c2.9-1.8,4.7-6.3,4.7-13.5-.1-3.3-.5-7.5-2.3-10.5Zm27.8,16.9c.9,1.7,1.9,3.5,2.8,5.2,1,1.9,2.1,3.8,3.2,5.7l-.2.4c-1.9.1-3.7.1-5.5.3l-.4-.4A51.48,51.48,0,0,0,160,34c-1.2-2.5-2.3-5-3.5-7.5l-.8-1.8c-1,.1-2,.1-2.9.1,0,2.5.1,5,.1,7.6l.3,7.4-.3.3c-1.7,0-3.4.1-5,.1l-.3-.3c.2-7.2.2-14.4.1-21.6-.1-4.4-.1-8.9-.3-13.3l.3-.3c2-.1,3.9-.1,5.9-.1,1-.1,2-.1,2.9-.1a18.39,18.39,0,0,1,5.1.6c2.5.9,5.3,3.1,5.3,8.9,0,1,0,5.1-2.9,7.8a10.21,10.21,0,0,1-3.5,1.9l2.3,5ZM159,20.1c1.2-.8,2.5-2.5,2.5-5.8a6.14,6.14,0,0,0-1.4-4.5,4.55,4.55,0,0,0-1.2-.9,6.84,6.84,0,0,0-3.4-.6,24.58,24.58,0,0,0-2.8.2c-.1,4.3-.1,8.4-.1,12.6C152.9,21.1,156.9,21.4,159,20.1Zm17.3,19.8c.2-6.2.1-12.8.1-19,0-4.1.1-8.2-.1-12.2-2.7.1-5.4.1-8.1.2l-.2-.4c.1-1.2.2-2.3.2-3.6l.3-.3h8.7c4.2-.1,8.3-.1,12.5-.2l.3.3c-.1,1.2-.2,2.4-.2,3.6l-.4.3c-2.6-.2-5.2-.2-7.8-.2-.1,6,.1,12.1.1,18.1.1,4.4.1,8.7.3,13.1l-.4.3c-1.7,0-3.3,0-5,.1l-.3-.1Zm25.7,0c.3-6.6.1-13.3,0-20-.1-5-.1-10-.4-15l.3-.3c1.8-.1,3.6-.1,5.3-.1a24.37,24.37,0,0,1,2.7-.1,13.79,13.79,0,0,1,4.7.6c2.1.7,4.5,2.9,4.5,7.8,0,.9-.1,5.1-3.3,7.3a6.46,6.46,0,0,1-3.4,1.2,10.34,10.34,0,0,1,3.4.6c4.6,1.8,4.7,6.8,4.7,8.1,0,3.7-1.5,7.4-5.1,8.9-2.7,1.2-5.2.9-10.7,1-.9,0-1.8.1-2.6.1l-.1-.1Zm3.1-19.3c2.2,0,4.9.2,7-.6,1.7-.7,3.9-2.6,3.9-6.9,0-.7.1-4.6-3.3-5.8a10.66,10.66,0,0,0-3.7-.4c-1.3,0-2.6,0-3.8.1l-.1,13.6Zm.1,9.5c.1,2.5.1,5,.2,7.4,4.3,0,6.6.1,8.5-.7,1.6-.7,3.6-2.6,3.6-6.7,0-.9-.1-4.2-2.9-5.9-1.3-.9-3.1-1.2-6.4-1.2-1,0-2.1.1-3,.1v7ZM248,36.2a12.1,12.1,0,0,1-3.8,3.1,12.73,12.73,0,0,1-5.7,1.2,12.87,12.87,0,0,1-5.5-1.2c-4.2-2.1-7.9-7.3-7.9-17.2,0-1.4,0-7.8,3-12.5a13.18,13.18,0,0,1,3-3.3,12.14,12.14,0,0,1,7.7-2.4A11.45,11.45,0,0,1,246,6.2c3.2,2.4,5.9,7.1,6,15.9C252,23.9,252.1,31.1,248,36.2ZM245.3,9.7a8,8,0,0,0-6.6-3.1,8.12,8.12,0,0,0-6.1,2.3,9,9,0,0,0-1.9,2.4c-2.3,4.1-2.4,9.9-2.4,10.9s.1,8.4,3.7,12.8a7.85,7.85,0,0,0,6.7,3.1,9.14,9.14,0,0,0,5.1-1.5,11.27,11.27,0,0,0,2.1-2.2c1.5-2.1,2.8-6,2.9-12C248.7,21.3,248.9,14,245.3,9.7Zm34,15.3c-.1,4.5-.2,6.9-.9,9a11.92,11.92,0,0,1-2.9,4.3,9.54,9.54,0,0,1-6.9,2.4,10.54,10.54,0,0,1-6.5-2.1c-4-3.1-3.9-8.3-3.8-12.8V12.1c0-2.4,0-4.7-.1-7.1l.3-.3c1.1,0,2.1-.1,3.1-.1l.3.3c-.2,2.9-.2,5.9-.2,8.7-.1,4.1-.1,8.1-.1,12.1,0,1.1.1,2.1.1,3.2.3,4.4,1.3,6.5,3.1,7.8a6.84,6.84,0,0,0,4.1,1.2,6.48,6.48,0,0,0,6.3-3.8c1.2-2.6,1.2-5.7,1.2-11.5,0-3.1-.1-6.2-.1-9.3-.1-2.8-.1-5.5-.2-8.3l.4-.3a24.37,24.37,0,0,1,2.7-.1l.3.3c0,4.5-.1,9.1-.1,13.6l-.1,6.5Zm18,.9c-1,4.6-2,9.2-2.9,13.8l-.4.3c-1.3,0-2.6,0-3.8.1l-.3-.3c-.7-3.8-1.5-7.8-2.3-11.7l-1.5-7.4C285,15.5,284,10.3,282.8,5l.3-.3c1-.1,2-.1,3-.2l.3.3c.9,5.7,2.1,11.3,3.1,17l2.9,15.3,4.5-22.3c.4-1.7.7-3.4,1.1-5.1.3-1.5.6-3.1.9-4.7l.4-.3c1.4,0,2.8-.1,4.1-.1l.3.3c.5,2.3,1,4.6,1.4,7,.4,1.5.6,3.1,1,4.6l4.1,20.4c1.1-5.3,2.1-10.7,3-16.1.5-2.5,1-5,1.4-7.5.5-2.9,1.1-5.7,1.5-8.5l.4-.3H319l.3.3c-.8,3.6-1.6,7.3-2.3,10.9l-2.4,11.8c-.8,4-1.5,8.1-2.2,12.1l-.4.3a22.88,22.88,0,0,0-3.7.1l-.4-.3c-.4-1.8-.7-3.6-1.2-5.3-.2-1.2-.5-2.3-.7-3.5L301.1,6.7l-3.8,19.2Zm33.4,11.6c1.4,0,2.9,0,4.4-.1s3.1-.2,4.6-.2l.3.3a16.35,16.35,0,0,0-.2,2.2l-.3.3c-3.5,0-6.9-.1-10.4,0-1.8,0-3.6.1-5.4.1l-.3-.3c.2-6.1.1-12.1,0-18.2-.1-3-.1-6.2-.1-9.3L323,4.8l.3-.3c5.3.1,10.7.2,16.1-.1l.3.3c-.1.7-.1,1.5-.2,2.2l-.4.3c-3.1-.1-6.3-.2-9.6-.2h-3c.1,4.4.1,8.7.2,13.1h4.2c2.6,0,5.1,0,7.7-.1l.4.3a14.92,14.92,0,0,0-.2,2.1l-.4.3c-2.6-.1-5.1-.1-7.6-.1l-4.1.1c.1,4.9.1,9.7.2,14.6Zm27.6-9.2c1.3,2.3,2.7,4.7,4.1,7l2.7,4.3-.1.4c-1.2.1-2.3.1-3.6.2l-.4-.3c-1-1.6-1.8-3.3-2.7-5s-2-3.6-2.9-5.3l-2.7-4.8-.5-.9c-1.2.1-2.5.1-3.7.1,0,5.2.1,10.6.4,15.8l-.3.3c-1,0-2,.1-2.9.1l-.3-.3c.2-6.9.1-13.8-.1-20.7-.1-4.7-.1-9.5-.3-14.2l.3-.3c1.2-.1,2.5-.1,3.7-.1s2.7-.1,4.1-.1a15,15,0,0,1,5.2.7c2.1.9,4.5,3.4,4.5,8.5,0,.9-.1,5.1-2.9,7.6a12.76,12.76,0,0,1-4.4,2.1l2.8,4.9ZM354,21.1a16,16,0,0,0,2.1-.5c1.8-.8,3.7-2.6,3.7-6.8,0-.6.1-4.9-3.3-6.2a10.58,10.58,0,0,0-3.8-.5c-1.4,0-2.8.1-4.2.2-.1,4.6,0,9.5.1,14.2.4-.1,3.2,0,5.4-.4Z" transform="translate(-0.2 -3.9)" style="fill:#fff"/><path d="M255.2,60.4a7.91,7.91,0,0,0,3.5-3.9.76.76,0,0,0,.1-.4c0-.4-.4-.5-1.1-.5s-1.9.6-3.3,1.8a18.3,18.3,0,0,0-4.4,4.9,1.27,1.27,0,0,0,.6.1,13,13,0,0,0,4.6-2Zm-71.8,1.8a22.19,22.19,0,0,1,4.2-4.6q2.1-1.8,3.3-1.8h.3c-.1-.2-.5-.3-1.1-.3q-1.2,0-3.3,1.8a18.3,18.3,0,0,0-4.4,4.9,1.27,1.27,0,0,0,.6.1A.6.6,0,0,1,183.4,62.2Zm161.4-7.4c-1.8,0-4.3,1.4-7.3,4.3S333,64.3,333,66c0,1.1.4,1.6,1.1,1.6,1.7,0,4.1-1.9,7-5.7l4.7-6.5c0-.4-.4-.6-1-.6ZM176.4,48c-.1,0-.3-.2-.4-.4a1.36,1.36,0,0,0-1.3-.7c-1.4,0-2.7,1-3.8,2.9-.3.4-1,1.8-2.2,4.2h.5c2.8,0,4.7-.1,5.9-.1,2.6-4,4.5-6.5,6-7.4h-3.8v.1C177.2,47.5,176.9,48,176.4,48Z" transform="translate(-0.2 -3.9)" style="fill:#0e9cae"/><path d="M347.4,46.6H282.1a.1.1,0,0,1,.1.1,1,1,0,0,1,.5.7c-.7.9-2,2.7-3.9,5.3s-3.3,4.5-4.1,5.7-1.3,2-1.7,2.6-.6,1-.8,1.3a6.66,6.66,0,0,0-.6,1.2,6.09,6.09,0,0,0-.7,2.8c0,.9.5,1.3,1.5,1.3a7.75,7.75,0,0,0,3.8-1.5,20.33,20.33,0,0,0,4.3-4.1c.4-.8.9-1.7,1.4-2.6,1.8-2.9,3.1-4.3,4.2-4.3a2.6,2.6,0,0,1,1,.4.79.79,0,0,1,.5.7,4.23,4.23,0,0,0-.5.7,5.72,5.72,0,0,0-.7.8,15.75,15.75,0,0,1-1,1.3c-.4.6-.9,1.1-1.2,1.6-2.2,2.9-3.4,4.9-3.4,5.9s.4,1.6,1.1,1.6a5.35,5.35,0,0,0,2.6-1,20,20,0,0,0,5.9-5.1,8.18,8.18,0,0,1,.8-.9l.3-.6c1.4-3.8,2.4-5.9,2.9-6.3a.85.85,0,0,1,.6-.2c.3,0,.5.2.9.4a1.91,1.91,0,0,1,.5,1c0,.1-.7,1.8-2.2,5.2s-2.2,5.4-2.1,6.1c1.3-.4,3.5-2,6.8-4.7s4.9-5.2,4.9-7.4a3,3,0,0,0-2-2.8.54.54,0,0,1-.3-.4c0-.3.2-.4.5-.4a3.17,3.17,0,0,1,2.3.9,3.38,3.38,0,0,1,1,2.5c0,2.3-1.9,5.3-5.8,8.8-3.3,3-5.9,4.8-7.9,5.4a3.62,3.62,0,0,1-1.3-.5c-.5-.3-.8-.6-.8-1a20.54,20.54,0,0,1,1.2-4.1,15.4,15.4,0,0,0-1.3,1.4l-.8.8a7.51,7.51,0,0,1-.8.7c-.4.4-.7.6-.9.8a9.69,9.69,0,0,1-.9.7,3.74,3.74,0,0,1-1,.6,9.29,9.29,0,0,1-1,.5,5.09,5.09,0,0,1-2.2.4c-1.5,0-2.3-1-2.3-2.9a7.87,7.87,0,0,1,.4-2c-2.8,3-5.2,4.6-7.1,4.6a4.09,4.09,0,0,1-2.5-.7,2.39,2.39,0,0,1-1-2.1,12.83,12.83,0,0,1,.7-3.4,51.78,51.78,0,0,1,4.2-7.6c2.9-4.7,5.1-7.5,6.5-8.3H250.5a.1.1,0,0,1,.1.1,1,1,0,0,1,.5.7c-.7.9-2,2.7-3.9,5.3s-3.3,4.5-4.1,5.7-1.3,2-1.7,2.6-.6,1-.8,1.3a6.66,6.66,0,0,0-.6,1.2,6.09,6.09,0,0,0-.7,2.8c0,.9.5,1.3,1.5,1.3a7.75,7.75,0,0,0,3.8-1.5,17.4,17.4,0,0,0,2.7-2.2,15.07,15.07,0,0,1,3.6-5.3c2.6-2.7,5-4.1,7-4.1a3.37,3.37,0,0,1,1.7.5,1.76,1.76,0,0,1,.6,1.3c0,1.7-1.3,3.3-3.8,4.7s-4.5,2.3-6.1,2.3a3.54,3.54,0,0,1-.6-.1,4.84,4.84,0,0,0-.7,2.6c0,1.5.7,2.3,2.2,2.3s3.4-1,5.7-3a25,25,0,0,0,4.6-4.6c.3-.4.5-.5.7-.5a.27.27,0,0,1,.3.3c0,.2-.2.4-.4.7a30.88,30.88,0,0,1-5.8,5.6c-2.3,1.7-4.2,2.5-5.8,2.5a2.92,2.92,0,0,1-.9-.2c-1.9-.5-2.8-1.6-2.8-3.2,0-.2.1-.4.1-.6-2.3,2.3-4.4,3.4-6,3.4a4.09,4.09,0,0,1-2.5-.7,2.39,2.39,0,0,1-1-2.1,8.08,8.08,0,0,1,.4-2.5,3.06,3.06,0,0,1-2,.7c-1.4,0-2.6-1.1-3.5-3.2a15,15,0,0,1-3.9,5.4,7.82,7.82,0,0,1-5,2.3c-1.5,0-2.3-1.2-2.3-3.6a6.88,6.88,0,0,1,.2-1.3l-.7.7-.8.8a7.51,7.51,0,0,1-.8.7c-.4.4-.7.6-.9.8a9.68,9.68,0,0,1-.9.7,3.74,3.74,0,0,1-1,.6,9.29,9.29,0,0,1-1,.5,5.09,5.09,0,0,1-2.2.4c-1.5,0-2.3-1-2.3-2.9a5.92,5.92,0,0,1,.4-2.1,31.47,31.47,0,0,1-2.6,2.6c-2.1,1.8-3.9,2.7-5.3,2.7s-2.3-1.1-2.8-3.1a17,17,0,0,1-.3-3.7,64.73,64.73,0,0,0-8.2,10.5.52.52,0,0,1-.4.2c-.4,0-.5-.2-.5-.5a.35.35,0,0,1,.1-.2,76.44,76.44,0,0,1,9-11.5c.1-4.1.2-6.4.2-6.9-.7.2-2.1,1.9-4.4,5.2a14.63,14.63,0,0,1-.9,1.3l-.3.6a27,27,0,0,1-2.8,3.1l-.4.4H191c-.8.7-1.7,1.4-2.6,2.1-2.3,1.7-4.2,2.5-5.8,2.5a2.92,2.92,0,0,1-.9-.2c-1.9-.5-2.8-1.6-2.8-3.2,0-.2.1-.4.1-.6-2.3,2.3-4.4,3.4-6,3.4a4.09,4.09,0,0,1-2.5-.7,2.39,2.39,0,0,1-1-2.1,12.84,12.84,0,0,1,.7-3.4,51.78,51.78,0,0,1,4.2-7.6.1.1,0,0,0,.1-.1,19.27,19.27,0,0,1-2,.5c-2,.3-3.6.6-4.9.9-1,1.9-2.1,4.2-3.4,6.8-2.7,5-4.4,8.1-5.3,9.3a31.66,31.66,0,0,1-3.1,3.7h-2.3a11.9,11.9,0,0,0,4.4-4.1,78.9,78.9,0,0,0,4.9-9.6l2.4-5.8c-3-.1-4.5-.4-4.5-1.1a1,1,0,0,1,.4-.7,1.33,1.33,0,0,1,.7-.3l4.2.1a30.37,30.37,0,0,1,4.3-7.5H151.6V75.8H328.2a2.82,2.82,0,0,1-.4-1.5c.1-.4.3-.5.4-.5s.2.1.2.3a3.84,3.84,0,0,0,.9,1.8h3.6a11.31,11.31,0,0,0,3-2.6,36.74,36.74,0,0,0,4.2-6.5l2.2-4.4-3.4,3.4c-2.1,2.1-3.6,3.1-4.4,3.1a3.72,3.72,0,0,1-2.2-.8,2.8,2.8,0,0,1-1.2-2.3,4.53,4.53,0,0,1,.3-1.6c-3,3.3-5.2,4.9-6.5,4.9s-2.2-.8-2.2-2.4a10.78,10.78,0,0,1,1.8-5.5l2.8-4.6a31.47,31.47,0,0,0-5.4,4.9c-1.6,1.8-3,3.5-4.3,5.1s-2,2.5-2.2,2.5a1.43,1.43,0,0,1-1.1-.5,2.12,2.12,0,0,1-.4-1.4,6.07,6.07,0,0,1,.6-2.2c.4-1,.9-2,1.5-3.4l-1.3,1.3-.3.3c-.6.7-1.2,1.3-1.6,1.7l-.8.8a7.51,7.51,0,0,1-.8.7c-.4.4-.7.6-.9.8a9.68,9.68,0,0,1-.9.7,3.74,3.74,0,0,1-1,.6,9.29,9.29,0,0,1-1,.5,5.09,5.09,0,0,1-2.2.4c-1.5,0-2.3-1-2.3-2.9,0-1.6.9-3.8,2.6-6.7s3.1-4.3,4.2-4.3a2.6,2.6,0,0,1,1,.4.79.79,0,0,1,.5.7,4.23,4.23,0,0,0-.5.7,5.72,5.72,0,0,0-.7.8,15.75,15.75,0,0,1-1,1.3c-.4.6-.9,1.1-1.2,1.6-2.2,2.9-3.4,4.9-3.4,5.9s.4,1.6,1.1,1.6a5.35,5.35,0,0,0,2.6-1,33,33,0,0,0,3.9-2.9c.1-.1.1-.2.2-.3a37.32,37.32,0,0,0,2.8-3.1c.7-1,2.3-3,4.7-5.8a1,1,0,0,1,.9-.5c.8,0,1.2.3,1.2,1a.75.75,0,0,1-.1.5q-4.05,5.55-4.8,8.4c6.9-6.9,11.1-10.4,12.6-10.4a.76.76,0,0,1,.4-.1c.8,0,1.2.4,1.2,1.1,0,.1-.1.3-.1.4a15.72,15.72,0,0,1-1.8,2.4,38.76,38.76,0,0,0-3.3,4.4,6.89,6.89,0,0,0-1.3,3.6c0,1,.2,1.4.6,1.4,1.3,0,3.6-1.8,6.8-5.4a1.38,1.38,0,0,0,.3-.4c.1-.1.2-.2.2-.3a19.6,19.6,0,0,1,3.1-3.7c3-3,5.8-4.5,8.3-4.5,1,0,1.7.3,2,1a1.42,1.42,0,0,1,.2.6c.1.2.1.3.2.3l.6-.1c.1,0,.2,0,.3.2v2.9a4.35,4.35,0,0,0-.4.7c-1,1.8-1.9,3.4-2.6,4.6a97.94,97.94,0,0,1-5.5,9.2,21.28,21.28,0,0,1-3.1,3.4h11.7V46.6Zm-57.2,5.9a1.92,1.92,0,0,1-1.2.4,1.85,1.85,0,0,1-1.2-.5,1.27,1.27,0,0,1-.5-1.1c0-.8.6-1.2,1.7-1.2a2.84,2.84,0,0,1,1.3.4c.4.3.6.6.5,1a2.07,2.07,0,0,1-.6,1Zm24.3.3a1.92,1.92,0,0,1-1.2.4,2.11,2.11,0,0,1-1.3-.5,1.27,1.27,0,0,1-.5-1.1c0-.8.6-1.2,1.7-1.2a2.84,2.84,0,0,1,1.3.4,1.22,1.22,0,0,1,.6,1A1.1,1.1,0,0,1,314.5,52.8Z" transform="translate(-0.2 -3.9)" style="fill:#0e9cae"/><path d="M183.4,47.3c-.7.9-2,2.7-3.9,5.3s-3.3,4.5-4.1,5.7-1.3,2-1.7,2.6-.6,1-.8,1.3a6.66,6.66,0,0,0-.6,1.2,6.09,6.09,0,0,0-.7,2.8c0,.9.5,1.3,1.5,1.3a7.75,7.75,0,0,0,3.8-1.5,17.4,17.4,0,0,0,2.7-2.2,15.07,15.07,0,0,1,3.6-5.3c2.6-2.7,5-4.1,7-4.1a3.37,3.37,0,0,1,1.7.5,1.76,1.76,0,0,1,.6,1.3c0,1.7-1.3,3.3-3.8,4.7s-4.5,2.3-6.1,2.3a3.54,3.54,0,0,1-.6-.1,4.84,4.84,0,0,0-.7,2.6c0,1.5.7,2.3,2.2,2.3s3.4-1,5.7-3a29.3,29.3,0,0,0,3.1-2.9c.9-1.1,2-2.6,3.4-4.7a22.28,22.28,0,0,1,3.4-4.5,3.21,3.21,0,0,1,1.9-1,2.27,2.27,0,0,1,1.3.3c.3.2.3.4.3.9s-.1.7-.2,1.1a3.08,3.08,0,0,0-.1,1,24.72,24.72,0,0,0-.3,3.4c1.5-1.4,4.7-4.3,9.9-8.6a.37.37,0,0,1,.3-.1.87.87,0,0,1,.6.4c.3.3.4.5.4.7a1,1,0,0,1-.4.7c-1,.8-2.6,2-5,3.7s-4.3,3.3-5.9,4.7a18.58,18.58,0,0,0-.1,2.6,12.69,12.69,0,0,0,.4,2.9c.4,1.2,1,1.8,2,1.8q2.4,0,7.5-5.7c.4-.7.8-1.5,1.3-2.4,1.8-2.9,3.1-4.3,4.2-4.3a2.6,2.6,0,0,1,1,.4.79.79,0,0,1,.5.7,4.23,4.23,0,0,0-.5.7,5.72,5.72,0,0,0-.7.8,15.75,15.75,0,0,1-1,1.3c-.4.6-.9,1.1-1.2,1.6-2.2,2.9-3.4,4.9-3.4,5.9s.4,1.6,1.1,1.6a5.35,5.35,0,0,0,2.6-1,20,20,0,0,0,5.9-5.1c.1-.1.1-.2.2-.2a53.49,53.49,0,0,1,4.3-7.1c3.5-5,6.1-7.5,8-7.5a2.46,2.46,0,0,1,1.1.4c.3.3.5.5.5.9,0,0-.2.2-.6.7s-1.6,1.8-3.5,3.8-3.8,4.4-5.7,6.9-2.8,4.4-2.8,5.8a3,3,0,0,0,.3,1.2,1,1,0,0,0,1,.6c1.3,0,2.8-1,4.6-3a16.47,16.47,0,0,0,2.7-4.5,7.55,7.55,0,0,1-.3-2.3c0-2,.6-3,1.9-3,.2,0,.3,0,.4.1.5.1.7.5.7,1.2a18.56,18.56,0,0,1-.4,2.6c-.2.8-.4,1.4-.5,1.8a7.57,7.57,0,0,0,.7,1.9,1.89,1.89,0,0,0,1.7,1.2,3.43,3.43,0,0,0,2.3-1.4c.1-.2.2-.2.3-.3.9-1.8,2.1-4,3.7-6.6,2.8-4.6,5-7.3,6.5-8.2H182.9c.2-.1.4.2.5.4Zm38,3.1a2.84,2.84,0,0,1,1.3.4,1.22,1.22,0,0,1,.6,1,1.39,1.39,0,0,1-.5,1,1.92,1.92,0,0,1-1.2.4,2.35,2.35,0,0,1-1.3-.5,1.27,1.27,0,0,1-.5-1.1c-.1-.8.5-1.2,1.6-1.2Z" transform="translate(-0.2 -3.9)" style="fill:#0e9cae"/><path d="M187.6,57.6a19.71,19.71,0,0,0-4.2,4.6,10.08,10.08,0,0,0,4.2-1.8,7.91,7.91,0,0,0,3.5-3.9.76.76,0,0,0,.1-.4c0-.1,0-.1-.1-.2h-.3C190.1,55.8,189,56.4,187.6,57.6Z" transform="translate(-0.2 -3.9)" style="fill:#0e9cae"/><path d="M328.2,75.9h1.1l-.1-.1h-1.1ZM221.5,53.3a2.45,2.45,0,0,0,1.2-.4,1.11,1.11,0,0,0,.5-1,1.22,1.22,0,0,0-.6-1,2,2,0,0,0-1.3-.4c-1.1,0-1.7.4-1.7,1.2a1.61,1.61,0,0,0,.5,1.1,3.39,3.39,0,0,0,1.4.5ZM328.2,73.7c-.2,0-.3.2-.4.5a2.82,2.82,0,0,0,.4,1.5h1.1a3.8,3.8,0,0,1-.9-1.8C328.3,73.9,328.3,73.7,328.2,73.7Zm-151-27.3h-6.8a.35.35,0,0,0-.1.2h6.9v-.2Zm5.6.2c-.1-.1-.2-.1-.2-.2h-1.4c-.1,0-.2.1-.3.2Zm67.4-.1h-1.4c-.1,0-.1.1-.2.1h1.7A.1.1,0,0,1,250.2,46.5Z" transform="translate(-0.2 -3.9)" style="fill:#fff"/><path d="M161.7,54a1.33,1.33,0,0,0-.7.3.87.87,0,0,0-.4.7c0,.7,1.5,1,4.5,1.1l-2.4,5.8a66.48,66.48,0,0,1-4.9,9.6,11.2,11.2,0,0,1-4.4,4.1h2.3a31.66,31.66,0,0,0,3.1-3.7c.9-1.2,2.6-4.3,5.3-9.3,1.3-2.6,2.4-4.9,3.4-6.8,1.3-.2,2.9-.5,4.9-.9a14.33,14.33,0,0,0,2-.5.1.1,0,0,1-.1.1,63.38,63.38,0,0,0-4.2,7.6,9.37,9.37,0,0,0-.7,3.4,2.18,2.18,0,0,0,1,2.1,4.09,4.09,0,0,0,2.5.7c1.7,0,3.7-1.1,6-3.4,0,.2-.1.4-.1.6,0,1.6,1,2.7,2.8,3.2a2.92,2.92,0,0,0,.9.2c1.6,0,3.5-.8,5.8-2.5a17.09,17.09,0,0,0,2.6-2.1h.1l.4-.4a27,27,0,0,0,2.8-3.1.86.86,0,0,0,.3-.6,14.63,14.63,0,0,0,.9-1.3c2.2-3.3,3.7-5,4.4-5.2-.1.5-.1,2.8-.2,6.9a71.7,71.7,0,0,0-9,11.5c-.1.1-.1.1-.1.2a.47.47,0,0,0,.5.5.52.52,0,0,0,.4-.2,58.45,58.45,0,0,1,8.2-10.5c.1,1.7.2,2.9.3,3.7.4,2,1.4,3.1,2.8,3.1s3.2-.9,5.3-2.7a20.93,20.93,0,0,0,2.6-2.6,5.92,5.92,0,0,0-.4,2.1c0,2,.7,2.9,2.3,2.9a6.65,6.65,0,0,0,2.2-.4,9.29,9.29,0,0,0,1-.5c.3-.1.6-.4,1-.6a9.69,9.69,0,0,0,.9-.7c.2-.2.5-.4.9-.8s.7-.6.8-.7l.8-.8a4.62,4.62,0,0,1,.7-.7,6.88,6.88,0,0,0-.2,1.3c0,2.4.8,3.6,2.3,3.6a7,7,0,0,0,5-2.3,15.89,15.89,0,0,0,3.9-5.4c.9,2.1,2.1,3.2,3.5,3.2a4,4,0,0,0,2-.7,8.08,8.08,0,0,0-.4,2.5,2.18,2.18,0,0,0,1,2.1,4.09,4.09,0,0,0,2.5.7c1.7,0,3.7-1.1,6-3.4,0,.2-.1.4-.1.6,0,1.6,1,2.7,2.8,3.2a2.92,2.92,0,0,0,.9.2c1.6,0,3.5-.8,5.8-2.5a28.13,28.13,0,0,0,5.8-5.6,2.74,2.74,0,0,0,.4-.7.32.32,0,0,0-.3-.3c-.2,0-.4.2-.7.5a25,25,0,0,1-4.6,4.6c-2.3,2-4.3,3-5.7,3s-2.2-.7-2.2-2.3a4.84,4.84,0,0,1,.7-2.6,1.27,1.27,0,0,0,.6.1c1.6,0,3.6-.7,6.1-2.3s3.8-3.1,3.8-4.7a1.61,1.61,0,0,0-.6-1.3,2.31,2.31,0,0,0-1.7-.5c-2.1,0-4.4,1.4-7,4.1a16.57,16.57,0,0,0-3.6,5.3,13.06,13.06,0,0,1-2.7,2.2,7.42,7.42,0,0,1-3.8,1.5c-1,0-1.5-.4-1.5-1.3a7.22,7.22,0,0,1,.7-2.8,6.66,6.66,0,0,1,.6-1.2c.2-.3.4-.7.8-1.3s.9-1.4,1.7-2.6,2.1-3,4.1-5.7,3.3-4.4,3.9-5.3a1.16,1.16,0,0,0-.5-.7l-.1-.1h-1.7c-1.5.8-3.7,3.6-6.5,8.2a70.54,70.54,0,0,0-3.7,6.6c-.1.1-.2.1-.3.3a3.44,3.44,0,0,1-2.3,1.4,2.13,2.13,0,0,1-1.7-1.2,7.56,7.56,0,0,1-.7-1.9c.1-.4.3-1,.5-1.8a15.07,15.07,0,0,0,.4-2.6c0-.7-.3-1.1-.7-1.2a.76.76,0,0,0-.4-.1c-1.2,0-1.9,1-1.9,3a7.55,7.55,0,0,0,.3,2.3,12.55,12.55,0,0,1-2.7,4.5c-1.8,2-3.3,3-4.6,3a1.22,1.22,0,0,1-1-.6,2.66,2.66,0,0,1-.3-1.2c0-1.4.9-3.3,2.8-5.8a80.49,80.49,0,0,1,5.7-6.9c1.9-2.1,3.1-3.4,3.5-3.8s.6-.7.6-.7a1.38,1.38,0,0,0-.5-.9,1.82,1.82,0,0,0-1.1-.4c-1.9,0-4.5,2.5-8,7.5a49.39,49.39,0,0,0-4.3,7.1c-.1.1-.1.2-.2.2a21.52,21.52,0,0,1-5.9,5.1,5,5,0,0,1-2.6,1c-.7,0-1.1-.5-1.1-1.6s1.1-3,3.4-5.9c.4-.5.8-1,1.2-1.6a8.51,8.51,0,0,1,1-1.3,5.72,5.72,0,0,1,.7-.8c.2-.3.4-.5.5-.7a1,1,0,0,0-.5-.7,2.6,2.6,0,0,0-1-.4c-1.1.1-2.5,1.4-4.2,4.3-.5.9-1,1.7-1.3,2.4q-5.1,5.7-7.5,5.7c-1,0-1.6-.6-2-1.8a9.25,9.25,0,0,1-.4-2.9,19.34,19.34,0,0,1,.1-2.6,57.76,57.76,0,0,1,5.9-4.7c2.3-1.7,4-2.9,5-3.7a1.27,1.27,0,0,0,.4-.7.75.75,0,0,0-.4-.7.72.72,0,0,0-.6-.4.44.44,0,0,0-.3.1c-5.1,4.3-8.4,7.2-9.9,8.6.1-.9.2-2,.3-3.4a3.75,3.75,0,0,0,.1-1c.1-.3.1-.6.2-1.1a.76.76,0,0,0-.3-.9,2.27,2.27,0,0,0-1.3-.3,2.74,2.74,0,0,0-1.9,1,32.43,32.43,0,0,0-3.4,4.5c-1.4,2.1-2.5,3.6-3.4,4.7s-2,2-3.1,2.9c-2.3,2-4.3,3-5.7,3s-2.2-.7-2.2-2.3a4.84,4.84,0,0,1,.7-2.6,1.27,1.27,0,0,0,.6.1c1.6,0,3.6-.7,6.1-2.3s3.8-3.1,3.8-4.7a1.61,1.61,0,0,0-.6-1.3,2.31,2.31,0,0,0-1.7-.5c-2.1,0-4.4,1.4-7,4.1a16.57,16.57,0,0,0-3.6,5.3,13.06,13.06,0,0,1-2.7,2.2,7.42,7.42,0,0,1-3.8,1.5c-1,0-1.5-.4-1.5-1.3A7.22,7.22,0,0,1,172,63a6.66,6.66,0,0,1,.6-1.2c.2-.3.4-.7.8-1.3s.9-1.4,1.7-2.6,2.1-3,4.1-5.7,3.3-4.4,3.9-5.3a1.16,1.16,0,0,0-.5-.7h-1.9c-1.4.9-3.4,3.3-6,7.4-1.2.1-3.1.1-5.9.1h-.5c1.2-2.4,2-3.8,2.2-4.2,1.2-2,2.5-2.9,3.8-2.9a1.27,1.27,0,0,1,1.3.7c.2.2.3.4.4.4.5,0,.8-.5.8-1.4v-.1h-6.9a30.37,30.37,0,0,0-4.3,7.5l-3.9.3Zm92.7,3.3q2.1-1.8,3.3-1.8c.7,0,1.1.2,1.1.5,0,.1-.1.3-.1.4a8.44,8.44,0,0,1-3.5,3.9,9.42,9.42,0,0,1-4.5,1.8c-.2,0-.4-.1-.6-.1a20.63,20.63,0,0,1,4.3-4.7Zm-67.6,0q2.1-1.8,3.3-1.8a1.44,1.44,0,0,1,1.1.3c.6,0,.8.2.8.5s-.1.3-.1.4a8.44,8.44,0,0,1-3.5,3.9,9.42,9.42,0,0,1-4.5,1.8c-.2,0-.4-.1-.6-.1a.22.22,0,0,1,.2-.2h-.3c-.2,0-.4-.1-.6-.1a18,18,0,0,1,4.2-4.7Zm103.4-6.8a2,2,0,0,0-1.3-.4c-1.1,0-1.7.4-1.7,1.2a1.61,1.61,0,0,0,.5,1.1,2.08,2.08,0,0,0,1.2.5,2.45,2.45,0,0,0,1.2-.4,1.23,1.23,0,0,0,.5-1c.2-.3-.1-.6-.4-1Z" transform="translate(-0.2 -3.9)" style="fill:#fff"/><path d="M191.1,56.5a8.44,8.44,0,0,1-3.5,3.9,10.08,10.08,0,0,1-4.2,1.8c-.1.1-.1.2-.2.2a1.27,1.27,0,0,0,.6.1,9.07,9.07,0,0,0,4.5-1.8,7.91,7.91,0,0,0,3.5-3.9.76.76,0,0,0,.1-.4c0-.3-.3-.5-.8-.5,0,.1.1.1.1.2a1,1,0,0,0-.1.4ZM332.6,76h2.9l.2-.2h-2.8c-.1.1-.2.1-.3.2ZM282,46.5h-1.4a.1.1,0,0,0-.1.1l1.5-.1Zm32.5,4.3a2,2,0,0,0-1.3-.4c-1.1,0-1.7.4-1.7,1.2a1.61,1.61,0,0,0,.5,1.1,1.66,1.66,0,0,0,1.3.5,2.45,2.45,0,0,0,1.2-.4,1.11,1.11,0,0,0,.5-1C315.1,51.4,314.8,51.1,314.5,50.8Zm24.3,21.6a74.49,74.49,0,0,0,5.5-9.2c.7-1.2,1.5-2.8,2.6-4.6a5.74,5.74,0,0,0,.4-.7V55c-.1-.2-.2-.2-.3-.2l-.6.1c-.1,0-.1-.1-.2-.3s-.1-.4-.2-.6a2.1,2.1,0,0,0-2-1c-2.5,0-5.3,1.5-8.3,4.5a24.31,24.31,0,0,0-3.1,3.7c-.1.1-.2.2-.2.3-.2.2-.3.3-.3.4-3.3,3.6-5.5,5.4-6.8,5.4-.4,0-.6-.5-.6-1.4a7.18,7.18,0,0,1,1.3-3.6,38.76,38.76,0,0,1,3.3-4.4q1.65-2.1,1.8-2.4a.76.76,0,0,0,.1-.4c0-.7-.4-1.1-1.2-1.1a.6.6,0,0,0-.4.1c-1.5,0-5.7,3.5-12.6,10.4q.75-2.85,4.8-8.4a1.09,1.09,0,0,0,.1-.5c0-.6-.4-1-1.2-1a1.38,1.38,0,0,0-.9.5c-2.4,2.8-4,4.8-4.7,5.8a39.19,39.19,0,0,1-2.8,3.1c-.1.1-.2.2-.2.3a24.71,24.71,0,0,1-3.9,2.9,5,5,0,0,1-2.6,1c-.7,0-1.1-.5-1.1-1.6s1.1-3,3.4-5.9c.4-.5.8-1,1.2-1.6a8.51,8.51,0,0,1,1-1.3,5.72,5.72,0,0,1,.7-.8c.2-.3.4-.5.5-.7a1,1,0,0,0-.5-.7,2.6,2.6,0,0,0-1-.4c-1.1.1-2.5,1.4-4.2,4.3s-2.6,5.1-2.6,6.7c0,2,.7,2.9,2.3,2.9a6.65,6.65,0,0,0,2.2-.4,9.29,9.29,0,0,0,1-.5c.3-.1.6-.4,1-.6a9.68,9.68,0,0,0,.9-.7c.2-.2.5-.4.9-.8s.7-.6.8-.7l.8-.8c.4-.4,1-1,1.6-1.7l.3-.3,1.3-1.3c-.6,1.3-1.1,2.4-1.5,3.4a6.07,6.07,0,0,0-.6,2.2,2.3,2.3,0,0,0,.4,1.4,1.17,1.17,0,0,0,1.1.5,10,10,0,0,0,2.2-2.5,64.69,64.69,0,0,1,4.3-5.1,36.19,36.19,0,0,1,5.4-4.9l-2.8,4.6a11.39,11.39,0,0,0-1.8,5.5c0,1.6.7,2.4,2.2,2.4,1.3,0,3.5-1.6,6.5-4.9a4.53,4.53,0,0,0-.3,1.6,2.56,2.56,0,0,0,1.2,2.3,3.72,3.72,0,0,0,2.2.8c.8,0,2.2-1,4.4-3.1l3.4-3.4-2.2,4.4A36.74,36.74,0,0,1,336,73a11.31,11.31,0,0,1-3,2.6h2.8a15.82,15.82,0,0,0,3-3.2Zm2.5-10.5c-3,3.8-5.3,5.7-7,5.7-.7,0-1.1-.5-1.1-1.6q0-2.7,4.5-6.9c3-2.8,5.4-4.3,7.3-4.3.6,0,1,.2,1.1.6Zm-67.3-7a63.38,63.38,0,0,0-4.2,7.6,9.37,9.37,0,0,0-.7,3.4,2.18,2.18,0,0,0,1,2.1,4.09,4.09,0,0,0,2.5.7c1.9,0,4.3-1.5,7.1-4.6a7.87,7.87,0,0,0-.4,2c0,2,.7,2.9,2.3,2.9a6.65,6.65,0,0,0,2.2-.4,9.29,9.29,0,0,0,1-.5c.3-.1.6-.4,1-.6a9.68,9.68,0,0,0,.9-.7c.2-.2.5-.4.9-.8s.7-.6.8-.7l.8-.8a15.4,15.4,0,0,1,1.3-1.4,18.8,18.8,0,0,0-1.2,4.1c0,.3.3.6.8,1a2.14,2.14,0,0,0,1.3.5c2-.6,4.7-2.5,7.9-5.4,3.9-3.5,5.8-6.5,5.8-8.8a3,3,0,0,0-1-2.5,3.17,3.17,0,0,0-2.3-.9.46.46,0,0,0-.5.4c0,.2.1.3.3.4a3,3,0,0,1,2,2.8c0,2.2-1.7,4.6-4.9,7.4s-5.5,4.3-6.8,4.7c-.1-.6.6-2.7,2.1-6.1s2.2-5.1,2.2-5.2a1.91,1.91,0,0,0-.5-1,1.22,1.22,0,0,0-.9-.4.85.85,0,0,0-.6.2c-.5.4-1.5,2.6-2.9,6.3l-.3.6a3.78,3.78,0,0,0-.8.9,21.52,21.52,0,0,1-5.9,5.1,5,5,0,0,1-2.6,1c-.7,0-1.1-.5-1.1-1.6s1.1-3,3.4-5.9c.4-.5.8-1,1.2-1.6a8.51,8.51,0,0,1,1-1.3,5.72,5.72,0,0,1,.7-.8c.2-.3.4-.5.5-.7a1,1,0,0,0-.5-.7,2.6,2.6,0,0,0-1-.4c-1.1.1-2.5,1.4-4.2,4.3a17.08,17.08,0,0,0-1.4,2.6,27.11,27.11,0,0,1-4.3,4.1,7.42,7.42,0,0,1-3.8,1.5c-1,0-1.5-.4-1.5-1.3a7.22,7.22,0,0,1,.7-2.8,6.66,6.66,0,0,1,.6-1.2c.2-.3.4-.7.8-1.3s.9-1.4,1.7-2.6,2.1-3,4.1-5.7,3.3-4.4,3.9-5.3a1.16,1.16,0,0,0-.5-.7l-.1-.1h-1.5C279.1,47.4,276.9,50.2,274,54.9Z" transform="translate(-0.2 -3.9)" style="fill:#fff"/></svg>