<svg xmlns="http://www.w3.org/2000/svg" viewBox="0 0 404 122"><path fill="none" stroke="#565758" stroke-miterlimit="10" d="M0 0h404v122H0z"/><path fill="none" stroke="#565758" stroke-miterlimit="10" d="M404 122L0 0v122z"/><path fill="none" stroke="#565758" stroke-miterlimit="10" d="M0 122L404 0v122z"/><path fill="none" d="M144.7 17.5H264v87.1H144.7z"/><path fill="#565758" d="M148.9 18.4h2.2v15h7.2v1.8h-9.4V18.4zM174.1 26.6c0 5.8-3.5 8.9-7.8 8.9-4.4 0-7.6-3.4-7.6-8.5 0-5.3 3.3-8.8 7.8-8.8 4.6-.1 7.6 3.4 7.6 8.4zm-13.1.3c0 3.6 1.9 6.8 5.4 6.8 3.4 0 5.4-3.2 5.4-7 0-3.3-1.7-6.8-5.4-6.8-3.6 0-5.4 3.3-5.4 7zM189.7 34.5c-1 .4-2.9.9-5.2.9-2.5 0-4.6-.6-6.3-2.2-1.4-1.4-2.3-3.6-2.3-6.3 0-5 3.5-8.7 9.1-8.7 1.9 0 3.5.4 4.2.8l-.5 1.8c-.9-.4-2-.7-3.7-.7-4.1 0-6.8 2.5-6.8 6.8s2.6 6.8 6.5 6.8c1.4 0 2.4-.2 2.9-.5v-5h-3.4v-1.7h5.5v8zM207.5 26.6c0 5.8-3.5 8.9-7.8 8.9-4.4 0-7.6-3.4-7.6-8.5 0-5.3 3.3-8.8 7.8-8.8 4.6-.1 7.6 3.4 7.6 8.4zm-13.1.3c0 3.6 1.9 6.8 5.4 6.8 3.4 0 5.4-3.2 5.4-7 0-3.3-1.8-6.8-5.4-6.8-3.6 0-5.4 3.3-5.4 7zM217.8 18.4v7h8.1v-7h2.2v16.8h-2.2v-7.9h-8.1v7.9h-2.2V18.4h2.2zM234.1 18.4v16.8h-2.2V18.4h2.2zM246.6 27.3H240v6.1h7.3v1.8h-9.5V18.4h9.1v1.8H240v5.3h6.5v1.8zM250.2 18.6c1.1-.2 2.7-.3 4.2-.3 2.3 0 3.8.4 4.9 1.4.9.8 1.3 1.9 1.3 3.2 0 2.2-1.4 3.7-3.2 4.3v.1c1.3.4 2.1 1.6 2.5 3.4.5 2.3 1 4 1.3 4.6H259c-.3-.5-.7-1.9-1.1-4-.5-2.3-1.4-3.2-3.4-3.3h-2v7.3h-2.2V18.6zm2.1 7.7h2.2c2.3 0 3.8-1.3 3.8-3.2 0-2.2-1.6-3.1-3.9-3.1-1 0-1.8.1-2.1.2v6.1zM155.9 65.2v-1.3l1.7-1.7c4.1-3.9 6-6 6-8.5 0-1.6-.8-3.2-3.2-3.2-1.5 0-2.7.7-3.4 1.4l-.7-1.5c1.1-.9 2.7-1.6 4.6-1.6 3.5 0 5 2.4 5 4.7 0 3-2.2 5.4-5.6 8.7l-1.3 1.2h7.3v1.8h-10.4zM178 50.5c-.4 0-1 0-1.6.1-3.4.6-5.3 3.1-5.6 5.8h.1c.8-1 2.1-1.9 3.9-1.9 2.9 0 4.9 2.1 4.9 5.2 0 3-2 5.7-5.4 5.7-3.5 0-5.7-2.7-5.7-6.9 0-3.2 1.1-5.7 2.7-7.3 1.3-1.3 3.1-2.1 5.2-2.4.6-.1 1.2-.1 1.6-.1v1.8zm-.6 9.4c0-2.3-1.3-3.7-3.3-3.7-1.3 0-2.5.8-3.1 2-.2.2-.2.6-.2 1 0 2.7 1.3 4.6 3.6 4.6 1.7 0 3-1.6 3-3.9zM188.3 65.2v-4.4h-7.5v-1.4L188 49h2.4v10.1h2.3v1.7h-2.3v4.4h-2.1zm0-6.1v-5.4c0-.8 0-1.7.1-2.5h-.1c-.5.9-.9 1.6-1.3 2.4l-4 5.5v.1h5.3zM201.4 53.1l1.7 2.6c.5.7.8 1.3 1.2 2h.1c.4-.7.8-1.4 1.2-2l1.7-2.6h2.4l-4.1 5.8 4.2 6.2h-2.5l-1.8-2.7c-.5-.7-.9-1.4-1.3-2.1h-.1c-.4.7-.8 1.4-1.3 2.1l-1.7 2.7h-2.4l4.3-6.2-4.1-5.9h2.5zM221.3 51l-2.9 1.5-.4-1.7 3.5-1.9h1.9v16.2h-2.1V51zM229.4 65.2v-1.3l1.7-1.7c4.1-3.9 6-6 6-8.5 0-1.6-.8-3.2-3.2-3.2-1.5 0-2.7.7-3.4 1.4l-.7-1.5c1.1-.9 2.7-1.6 4.6-1.6 3.5 0 5 2.4 5 4.7 0 3-2.2 5.4-5.6 8.7l-1.3 1.2h7.3v1.8h-10.4zM242.2 65.2v-1.3l1.7-1.7c4.1-3.9 6-6 6-8.5 0-1.6-.8-3.2-3.2-3.2-1.5 0-2.7.7-3.4 1.4l-.7-1.5c1.1-.9 2.7-1.6 4.6-1.6 3.5 0 5 2.4 5 4.7 0 3-2.2 5.4-5.6 8.7l-1.3 1.2h7.3v1.8h-10.4zM160.9 92.6c1 .6 2.4 1.1 3.9 1.1 2.2 0 3.5-1.2 3.5-2.9 0-1.6-.9-2.5-3.2-3.3-2.7-1-4.4-2.4-4.4-4.8 0-2.6 2.2-4.6 5.4-4.6 1.7 0 3 .4 3.7.8l-.6 1.8c-.5-.3-1.7-.8-3.2-.8-2.3 0-3.2 1.4-3.2 2.5 0 1.6 1 2.3 3.3 3.2 2.8 1.1 4.3 2.5 4.3 4.9 0 2.6-1.9 4.8-5.9 4.8-1.6 0-3.4-.5-4.3-1.1l.7-1.6zM177.3 95.2l-5.5-16.8h2.3l2.6 8.3c.7 2.3 1.3 4.3 1.8 6.3.5-2 1.2-4.1 1.9-6.3l2.8-8.3h2.3l-6 16.8h-2.2zM200.3 94.5c-1 .4-2.9.9-5.2.9-2.5 0-4.6-.6-6.3-2.2-1.4-1.4-2.3-3.6-2.3-6.3 0-5 3.5-8.7 9.1-8.7 1.9 0 3.5.4 4.2.8l-.5 1.8c-.9-.4-2-.7-3.7-.7-4.1 0-6.8 2.5-6.8 6.8s2.6 6.8 6.5 6.8c1.4 0 2.4-.2 2.9-.4v-5h-3.4v-1.7h5.5v7.9zM209 78.4h9.1v1.8h-6.9v5.6h6.4v1.8h-6.4v7.6H209V78.4zM223.3 78.4v16.8h-2.2V78.4h2.2zM227.1 78.4h2.2v15h7.2v1.8h-9.4V78.4zM247.6 87.3h-6.5v6.1h7.3v1.8h-9.5V78.4h9.1v1.8h-6.9v5.3h6.5v1.8z"/></svg>