<?xml version="1.0" encoding="UTF-8"?>
<svg width="294px" height="81px" viewBox="0 0 294 81" version="1.1" xmlns="http://www.w3.org/2000/svg" xmlns:xlink="http://www.w3.org/1999/xlink">
    <!-- Generator: Sketch 42 (36781) - http://www.bohemiancoding.com/sketch -->
    <title>Artboard</title>
    <desc>Created with Sketch.</desc>
    <defs></defs>
    <g id="Page-1" stroke="none" stroke-width="1" fill="none" fill-rule="evenodd">
        <g id="Artboard" fill-rule="nonzero">
            <path d="M40.4595611,63.0202247 C30.4137931,63.0202247 22.0269592,56.294382 19.262069,47.0808989 L0.184326019,47.0808989 L0.184326019,73.1550562 C0.184326019,77.2089888 3.50219436,80.6179775 7.64952978,80.6179775 L72.3479624,80.6179775 C76.4031348,80.6179775 79.8131661,77.3011236 79.8131661,73.1550562 L79.8131661,47.0808989 L61.6570533,47.0808989 C58.984326,56.294382 50.5053292,63.0202247 40.4595611,63.0202247 Z" id="Shape" fill="#009BAD"></path>
            <path d="M40.4595611,18.611236 C50.5053292,18.611236 58.892163,25.3370787 61.6570533,34.5505618 L79.8131661,34.5505618 L79.8131661,8.47640449 C79.8131661,4.42247191 76.4952978,1.01348315 72.3479624,1.01348315 L7.64952978,1.01348315 C3.59435737,1.01348315 0.184326019,4.33033708 0.184326019,8.47640449 L0.184326019,34.5505618 L19.262069,34.5505618 C22.0269592,25.4292135 30.4137931,18.611236 40.4595611,18.611236 Z" id="Shape" fill="#009BAD"></path>
            <path d="M40.4595611,31.141573 C35.1141066,31.141573 30.7824451,35.4719101 30.7824451,40.8157303 C30.7824451,46.1595506 35.1141066,50.4898876 40.4595611,50.4898876 C45.8050157,50.4898876 50.1366771,46.1595506 50.1366771,40.8157303 C50.1366771,35.4719101 45.8050157,31.141573 40.4595611,31.141573 Z" id="Shape" fill="#009BAD"></path>
            <path d="M61.6570533,34.5505618 C58.892163,25.3370787 50.5053292,18.611236 40.4595611,18.611236 C30.4137931,18.611236 22.0269592,25.3370787 19.262069,34.5505618 L0.184326019,34.5505618 L0.184326019,47.0808989 L19.262069,47.0808989 C22.0269592,56.294382 30.4137931,63.0202247 40.4595611,63.0202247 C50.5053292,63.0202247 58.892163,56.294382 61.6570533,47.0808989 L79.8131661,47.0808989 L79.8131661,34.5505618 L61.6570533,34.5505618 Z M40.4595611,50.4898876 C35.1141066,50.4898876 30.7824451,46.1595506 30.7824451,40.8157303 C30.7824451,35.4719101 35.1141066,31.141573 40.4595611,31.141573 C45.8050157,31.141573 50.1366771,35.4719101 50.1366771,40.8157303 C50.1366771,46.1595506 45.8050157,50.4898876 40.4595611,50.4898876 Z" id="Shape" fill="#FFFFFF"></path>
            <path d="M96.0338558,81.0786517 C96.3103448,74.4449438 96.1260188,67.7191011 96.0338558,60.9932584 C95.9416928,56.0179775 95.9416928,50.858427 95.6652038,45.8831461 L95.9416928,45.6067416 C97.69279,45.5146067 99.5360502,45.5146067 101.287147,45.5146067 C102.116614,45.4224719 103.038245,45.4224719 103.959875,45.4224719 C104.328527,45.4224719 106.909091,45.3303371 108.752351,46.0674157 C110.8721,46.8044944 113.268339,49.0157303 113.268339,53.9910112 C113.268339,54.9123596 113.176176,59.1505618 109.95047,61.3617978 C108.568025,62.2831461 107.093417,62.5595506 106.540439,62.6516854 C108.291536,62.7438202 109.213166,62.9280899 109.95047,63.2966292 C114.558621,65.047191 114.742947,70.1146067 114.742947,71.4044944 C114.742947,75.1820225 113.268339,78.8674157 109.581818,80.4337079 C106.909091,81.6314607 104.42069,81.2629213 98.7987461,81.3550562 C97.877116,81.3550562 97.0476489,81.447191 96.1260188,81.447191 L96.0338558,81.0786517 Z M99.2595611,61.6382022 C101.471473,61.6382022 104.144201,61.8224719 106.26395,60.9932584 C108.015047,60.2561798 110.226959,58.4134831 110.226959,54.0831461 C110.226959,53.3460674 110.319122,49.3842697 106.909091,48.1865169 C106.171787,47.9101124 104.973668,47.8179775 103.130408,47.8179775 C101.840125,47.8179775 100.549843,47.8179775 99.2595611,47.9101124 L99.2595611,61.6382022 Z M99.2595611,71.2202247 C99.3517241,73.7078652 99.3517241,76.1955056 99.4438871,78.6831461 C103.775549,78.6831461 106.079624,78.7752809 108.015047,77.9460674 C109.673981,77.2089888 111.609404,75.2741573 111.609404,71.2202247 C111.609404,70.2988764 111.517241,66.9820225 108.752351,65.3235955 C107.369906,64.494382 105.618809,64.1258427 102.30094,64.1258427 C101.287147,64.1258427 100.273354,64.2179775 99.2595611,64.2179775 L99.2595611,71.2202247 L99.2595611,71.2202247 Z" id="Shape" fill="#575756"></path>
            <path d="M113.821317,1.93483146 C113.636991,3.31685393 113.544828,4.6988764 113.452665,6.08089888 L113.084013,6.26516854 C112.531034,5.80449438 112.162382,5.52808989 111.517241,5.15955056 C110.8721,4.79101124 109.305329,4.14606742 107.277743,4.14606742 C106.540439,4.14606742 104.42069,4.23820225 102.485266,5.43595506 C97.1398119,8.84494382 97.3241379,17.2292135 97.3241379,18.1505618 C97.3241379,19.4404494 97.2319749,25.3370787 101.102821,29.0224719 C102.116614,29.9438202 104.052038,31.4179775 107.369906,31.4179775 C110.779937,31.4179775 112.807524,29.9438202 113.821317,29.1146067 L114.189969,29.2988764 C114.005643,30.7730337 113.91348,32.1550562 113.91348,33.6292135 L113.636991,33.9977528 C112.346708,34.6426966 110.134796,35.6561798 106.632602,35.6561798 C102.669592,35.6561798 99.3517241,34.5505618 96.4946708,31.6022472 C94.3749216,29.3910112 91.8865204,25.4292135 91.8865204,18.3348315 C91.8865204,8.01573034 96.5868339,2.94831461 100.918495,1.19775281 C102.024451,0.737078652 103.959875,0.0921348315 106.909091,0.0921348315 C108.291536,0.0921348315 110.687774,0.184269663 113.729154,1.4741573 L113.821317,1.93483146 Z" id="Shape" fill="#575756"></path>
            <path d="M138.060188,32.4314607 C135.66395,34.7348315 132.806897,35.6561798 129.581191,35.6561798 C128.659561,35.6561798 126.17116,35.5640449 123.774922,34.458427 C117.692163,31.4179775 116.125392,23.8629213 116.125392,17.6898876 C116.125392,16.4 116.033229,7.64719101 121.28652,3.04044944 C122.668966,1.84269663 125.157367,0.184269663 129.581191,0.184269663 C131.147962,0.184269663 132.806897,0.368539326 134.281505,0.921348315 C138.889655,2.67191011 142.760502,7.55505618 142.852665,17.7820225 C142.852665,25.6134831 140.640752,29.9438202 138.060188,32.4314607 Z M135.387461,7.64719101 C133.452038,4.33033708 131.055799,3.96179775 129.489028,3.96179775 C128.843887,3.96179775 127.277116,4.05393258 125.710345,5.06741573 C121.102194,8.29213483 121.378683,17.505618 121.378683,17.6898876 C121.378683,18.4269663 121.378683,24.9685393 124.051411,28.8382022 C125.433856,30.7730337 127.277116,31.8786517 129.673354,31.8786517 C130.226332,31.8786517 131.608777,31.7865169 132.991223,31.0494382 C135.756113,29.2988764 137.599373,24.9685393 137.599373,17.9662921 C137.599373,14.5573034 137.138558,10.5955056 135.387461,7.64719101 Z" id="Shape" fill="#575756"></path>
            <path d="M167.275862,9.6741573 C168.013166,6.81797753 168.842633,3.86966292 169.487774,1.01348315 L169.856426,0.737078652 C171.976176,0.737078652 174.095925,0.64494382 176.307837,0.64494382 L176.676489,0.921348315 C176.768652,4.88314607 176.860815,8.75280899 177.045141,12.7146067 L177.32163,20.4539326 C177.505956,25.2449438 177.690282,29.9438202 177.966771,34.7348315 L177.690282,35.011236 C176.123511,35.011236 174.55674,35.011236 172.897806,35.1033708 L172.621317,34.8269663 C172.621317,30.6808989 172.529154,26.6269663 172.529154,22.4808989 L172.252665,4.79101124 L167.275862,24.1393258 C166.446395,27.6404494 165.432602,31.141573 164.603135,34.7348315 L164.234483,35.011236 C162.759875,35.011236 161.193103,35.011236 159.626332,35.1033708 L159.25768,34.8269663 C158.428213,31.4179775 157.690909,27.9168539 156.769279,24.5078652 L152.253292,5.06741573 L151.700313,20.4539326 C151.60815,23.5865169 151.515987,26.6269663 151.423824,29.6674157 C151.331661,30.8651685 151.331661,32.0629213 151.331661,33.2606742 L151.331661,34.7348315 L150.963009,35.011236 C149.580564,35.011236 148.198119,35.1033708 146.907837,35.1033708 L146.631348,34.8269663 C147,30.588764 147.184326,26.258427 147.460815,22.0202247 L148.013793,11.2404494 C148.105956,9.76629213 148.105956,8.2 148.198119,6.63370787 C148.290282,4.6988764 148.382445,2.85617978 148.382445,0.921348315 L148.751097,0.64494382 C150.963009,0.64494382 153.082759,0.552808989 155.294671,0.552808989 L155.663323,0.829213483 C156.216301,3.31685393 156.861442,5.80449438 157.506583,8.29213483 L162.391223,28.1011236 L167.275862,9.6741573 Z" id="Shape" fill="#575756"></path>
            <path d="M189.118495,35.011236 C187.551724,35.011236 185.89279,35.1033708 184.326019,35.1033708 L184.04953,34.8269663 C184.233856,27.8247191 184.141693,20.9146067 184.141693,13.9123596 C184.04953,9.58202247 184.04953,5.25168539 183.773041,1.01348315 L184.04953,0.737078652 C185.431975,0.737078652 186.906583,0.737078652 188.289028,0.829213483 L195.016928,0.829213483 C197.136677,0.737078652 199.164263,0.737078652 201.284013,0.737078652 L201.560502,1.01348315 C201.468339,2.21123596 201.376176,3.31685393 201.284013,4.42247191 L200.915361,4.6988764 C198.15047,4.51460674 195.293417,4.51460674 192.528527,4.51460674 L189.118495,4.51460674 C189.118495,8.29213483 189.210658,12.0696629 189.210658,15.9393258 L191.606897,15.9393258 C194.095298,15.847191 196.491536,15.847191 198.979937,15.7550562 L199.256426,16.0314607 C199.164263,17.1370787 199.0721,18.3348315 198.979937,19.4404494 L198.611285,19.7168539 C196.122884,19.5325843 193.726646,19.6247191 191.238245,19.6247191 L189.118495,19.7168539 C189.210658,24.7842697 189.302821,29.7595506 189.394984,34.8269663 L189.118495,35.011236 Z" id="Shape" fill="#575756"></path>
            <path d="M225.154232,32.4314607 C222.757994,34.7348315 219.90094,35.6561798 216.675235,35.6561798 C215.753605,35.6561798 213.265204,35.5640449 210.868966,34.458427 C204.786207,31.4179775 203.219436,23.8629213 203.219436,17.6898876 C203.219436,16.4 203.127273,7.64719101 208.380564,3.04044944 C209.763009,1.84269663 212.251411,0.184269663 216.675235,0.184269663 C218.242006,0.184269663 219.90094,0.368539326 221.375549,0.921348315 C225.983699,2.67191011 229.854545,7.55505618 229.946708,17.7820225 C229.946708,25.6134831 227.734796,29.9438202 225.154232,32.4314607 Z M222.481505,7.64719101 C220.546082,4.33033708 218.149843,3.96179775 216.583072,3.96179775 C215.937931,3.96179775 214.37116,4.05393258 212.804389,5.06741573 C208.196238,8.29213483 208.472727,17.505618 208.472727,17.6898876 C208.472727,18.4269663 208.472727,24.9685393 211.145455,28.8382022 C212.5279,30.7730337 214.37116,31.8786517 216.767398,31.8786517 C217.320376,31.8786517 218.702821,31.7865169 220.085266,31.0494382 C222.850157,29.2988764 224.693417,24.9685393 224.693417,17.9662921 C224.693417,14.5573034 224.232602,10.5955056 222.481505,7.64719101 Z" id="Shape" fill="#575756"></path>
            <path d="M249.485266,24.047191 C250.314734,25.705618 251.328527,27.3640449 252.157994,29.1146067 C253.171787,30.9573034 254.18558,32.8 255.291536,34.6426966 L255.10721,35.011236 C253.26395,35.1033708 251.605016,35.1033708 249.761755,35.2876404 L249.30094,34.9191011 C248.563636,32.9842697 247.642006,31.0494382 246.720376,29.2067416 C245.61442,26.811236 244.416301,24.3235955 243.310345,21.9280899 L242.573041,20.2696629 C241.651411,20.3617978 240.637618,20.3617978 239.715987,20.3617978 C239.715987,22.7573034 239.80815,25.2449438 239.80815,27.7325843 C239.900313,30.1280899 239.992476,32.5235955 240.084639,34.9191011 L239.80815,35.1955056 C238.149216,35.1955056 236.582445,35.2876404 234.923511,35.2876404 L234.647022,35.011236 C234.831348,28.0089888 234.831348,21.0988764 234.739185,14.0966292 C234.647022,9.85842697 234.647022,5.43595506 234.462696,1.19775281 L234.739185,0.921348315 C236.674608,0.829213483 238.517868,0.829213483 240.453292,0.829213483 C241.467085,0.737078652 242.388715,0.737078652 243.310345,0.737078652 C245.798746,0.737078652 247.089028,1.01348315 248.194984,1.38202247 C250.591223,2.21123596 253.26395,4.42247191 253.26395,10.0426966 C253.26395,11.0561798 253.26395,15.0179775 250.49906,17.5977528 C249.116614,18.7955056 247.642006,19.2561798 247.089028,19.4404494 L249.485266,24.047191 Z M245.706583,15.6629213 C246.904702,14.9258427 248.102821,13.2674157 248.102821,10.0426966 C248.102821,7.73932584 247.549843,6.54157303 246.720376,5.71235955 C246.53605,5.52808989 246.167398,5.15955056 245.61442,4.88314607 C244.969279,4.51460674 243.955486,4.33033708 242.296552,4.33033708 C241.374922,4.33033708 240.453292,4.42247191 239.623824,4.51460674 C239.531661,8.66067416 239.531661,12.6224719 239.531661,16.6764045 C239.900313,16.6764045 243.678997,16.952809 245.706583,15.6629213 Z" id="Shape" fill="#575756"></path>
            <path d="M262.572414,34.8269663 C262.75674,28.7460674 262.664577,22.4808989 262.664577,16.4 C262.664577,12.4382022 262.75674,8.47640449 262.572414,4.51460674 C259.99185,4.60674157 257.319122,4.60674157 254.738558,4.6988764 L254.462069,4.42247191 C254.554232,3.31685393 254.646395,2.11910112 254.646395,1.01348315 L254.922884,0.737078652 L263.401881,0.737078652 C267.457053,0.64494382 271.512226,0.64494382 275.475235,0.552808989 L275.751724,0.829213483 C275.659561,2.02696629 275.567398,3.13258427 275.567398,4.33033708 L275.198746,4.60674157 C272.710345,4.42247191 270.221944,4.42247191 267.641379,4.42247191 C267.549216,10.2269663 267.733542,16.1235955 267.733542,21.9280899 C267.825705,26.1662921 267.825705,30.4044944 268.010031,34.6426966 L267.641379,34.9191011 C266.074608,34.9191011 264.415674,34.9191011 262.848903,35.011236 L262.572414,34.8269663 Z" id="Shape" fill="#575756"></path>
            <path d="M141.009404,76.9325843 C140.548589,77.4853933 139.166144,79.0516854 137.322884,79.9730337 C136.309091,80.5258427 134.557994,81.1707865 131.793103,81.1707865 C130.963636,81.1707865 128.659561,81.0786517 126.447649,79.9730337 C122.392476,77.9460674 118.798119,72.9707865 118.798119,63.2966292 C118.798119,61.9146067 118.798119,55.741573 121.747335,51.2269663 C122.115987,50.6741573 123.129781,49.2 124.696552,48.094382 C125.986834,47.0808989 128.290909,45.7910112 132.161755,45.7910112 C133.452038,45.7910112 136.401254,45.8831461 139.166144,48.0022472 C142.299687,50.305618 144.880251,54.9123596 144.972414,63.388764 C144.788088,64.9550562 144.880251,71.9573034 141.009404,76.9325843 Z M138.336677,51.2269663 C136.032602,48.3707865 133.359875,48.1865169 131.885266,48.1865169 C128.659561,48.1865169 127.000627,49.4764045 125.986834,50.3977528 C125.526019,50.858427 124.880878,51.5033708 124.143574,52.7011236 C121.839498,56.6629213 121.839498,62.2831461 121.839498,63.2966292 C121.839498,64.3101124 121.931661,71.4966292 125.341693,75.6426966 C127.09279,77.7617978 129.120376,78.6831461 131.885266,78.6831461 C132.714734,78.6831461 134.834483,78.5910112 136.769906,77.2089888 C137.230721,76.8404494 138.060188,76.1033708 138.797492,74.9977528 C140.2721,72.8786517 141.562382,69.1932584 141.562382,63.2966292 C141.654545,62.4674157 141.838871,55.3730337 138.336677,51.2269663 Z" id="Shape" fill="#575756"></path>
            <path d="M171.331034,66.0606742 C171.238871,70.4831461 171.146708,72.694382 170.501567,74.7213483 C169.764263,76.9325843 168.289655,78.4067416 167.644514,78.8674157 C166.538558,79.8808989 164.510972,81.1707865 160.916614,81.1707865 C159.810658,81.1707865 157.045768,81.0786517 154.557367,79.1438202 C150.68652,76.1033708 150.778683,71.0359551 150.778683,66.705618 L150.778683,53.4382022 C150.778683,51.1348315 150.778683,48.8314607 150.68652,46.5280899 L150.963009,46.2516854 C151.976803,46.2516854 152.990596,46.1595506 154.004389,46.1595506 L154.280878,46.4359551 C154.096552,49.2921348 154.096552,52.1483146 154.096552,54.9123596 C154.004389,58.8741573 154.004389,62.7438202 154.004389,66.705618 C154.004389,67.811236 154.096552,68.8247191 154.096552,69.8382022 C154.373041,74.0764045 155.386834,76.1033708 157.137931,77.3932584 C157.783072,77.8539326 159.073354,78.5910112 161.10094,78.5910112 C163.865831,78.5910112 165.98558,77.3932584 167.183699,74.905618 C168.381818,72.4179775 168.381818,69.3775281 168.381818,63.7573034 C168.381818,60.7168539 168.289655,57.7685393 168.289655,54.7280899 C168.197492,52.0561798 168.197492,49.2921348 168.105329,46.6202247 L168.473981,46.3438202 C169.303448,46.2516854 170.132915,46.2516854 171.054545,46.2516854 L171.331034,46.5280899 C171.331034,50.858427 171.238871,55.2808989 171.238871,59.7033708 L171.238871,66.0606742 L171.331034,66.0606742 Z" id="Shape" fill="#575756"></path>
            <path d="M188.842006,66.9820225 C187.828213,71.4966292 186.906583,75.9191011 186.077116,80.4337079 L185.708464,80.7101124 C184.418182,80.7101124 183.220063,80.7101124 182.021944,80.8022472 L181.745455,80.5258427 C181.00815,76.7483146 180.270846,72.9707865 179.441379,69.1932584 L177.966771,62.0067416 C176.860815,56.9393258 175.939185,51.8719101 174.741066,46.7123596 L175.017555,46.4359551 C175.939185,46.3438202 176.952978,46.3438202 177.966771,46.2516854 L178.24326,46.5280899 C179.072727,52.0561798 180.270846,57.4921348 181.284639,63.0202247 L184.141693,77.8539326 L188.473354,56.2022472 C188.842006,54.5438202 189.210658,52.8853933 189.487147,51.2269663 C189.763636,49.752809 190.040125,48.1865169 190.316614,46.6202247 L190.685266,46.3438202 C192.067712,46.3438202 193.357994,46.2516854 194.648276,46.2516854 L194.924765,46.5280899 C195.38558,48.7393258 195.846395,51.0426966 196.30721,53.3460674 C196.675862,54.8202247 196.952351,56.3865169 197.321003,57.8606742 L201.284013,77.6696629 C202.297806,72.5101124 203.311599,67.3505618 204.233229,62.0988764 C204.694044,59.7033708 205.154859,57.2157303 205.615674,54.8202247 C206.076489,52.0561798 206.629467,49.2921348 207.090282,46.5280899 L207.551097,46.2516854 L209.947335,46.2516854 L210.223824,46.5280899 C209.48652,49.9370787 208.657053,53.5303371 207.919749,57.0314607 L205.615674,68.4561798 C204.87837,72.3258427 204.141066,76.2876404 203.403762,80.2494382 L203.03511,80.5258427 C201.836991,80.4337079 200.638871,80.5258427 199.348589,80.6179775 L198.979937,80.341573 C198.611285,78.5910112 198.242633,76.9325843 197.873981,75.1820225 C197.689655,74.0764045 197.413166,72.9707865 197.136677,71.8651685 L192.344201,48.3707865 L188.842006,66.9820225 Z" id="Shape" fill="#575756"></path>
            <path d="M221.191223,78.1303371 C222.573668,78.1303371 223.956113,78.1303371 225.430721,78.0382022 C226.905329,77.9460674 228.4721,77.8539326 229.946708,77.8539326 L230.223197,78.1303371 C230.131034,78.8674157 230.038871,79.6044944 230.038871,80.341573 L229.762382,80.6179775 C226.444514,80.6179775 223.034483,80.5258427 219.716614,80.6179775 C217.965517,80.6179775 216.21442,80.7101124 214.463323,80.7101124 L214.186834,80.4337079 C214.37116,74.5370787 214.278997,68.6404494 214.186834,62.8359551 C214.094671,59.8876404 214.094671,56.847191 214.094671,53.8067416 C214.002508,51.411236 213.910345,48.9235955 213.818182,46.5280899 L214.094671,46.2516854 C219.255799,46.3438202 224.509091,46.4359551 229.670219,46.1595506 L229.946708,46.4359551 C229.854545,47.1730337 229.854545,47.9101124 229.762382,48.5550562 L229.39373,48.8314607 C226.352351,48.7393258 223.218809,48.647191 220.085266,48.647191 L217.13605,48.647191 C217.228213,52.8853933 217.228213,57.1235955 217.320376,61.3617978 L221.375549,61.3617978 C223.86395,61.3617978 226.352351,61.3617978 228.840752,61.2696629 L229.209404,61.5460674 C229.117241,62.1910112 229.025078,62.9280899 229.025078,63.5730337 L228.656426,63.8494382 C226.168025,63.7573034 223.771787,63.7573034 221.283386,63.7573034 L217.320376,63.8494382 C217.412539,68.5483146 217.412539,73.247191 217.504702,77.9460674 L221.191223,77.9460674 L221.191223,78.1303371 Z" id="Shape" fill="#575756"></path>
            <path d="M248.010658,69.2853933 C249.30094,71.588764 250.591223,73.8921348 251.973668,76.1033708 C252.803135,77.4853933 253.724765,78.9595506 254.554232,80.2494382 L254.369906,80.6179775 C253.171787,80.7101124 252.065831,80.7101124 250.959875,80.8022472 L250.49906,80.5258427 C249.577429,78.9595506 248.840125,77.3011236 247.918495,75.7348315 C246.996865,73.9842697 245.983072,72.2337079 245.061442,70.5752809 C244.231975,69.0089888 243.402508,67.4426966 242.480878,65.8764045 L242.020063,65.047191 C240.821944,65.1393258 239.623824,65.1393258 238.425705,65.1393258 C238.425705,70.2067416 238.517868,75.3662921 238.794357,80.5258427 L238.517868,80.8022472 C237.504075,80.8022472 236.582445,80.894382 235.660815,80.894382 L235.384326,80.6179775 C235.568652,73.8921348 235.476489,67.1662921 235.292163,60.5325843 C235.2,55.9258427 235.2,51.3191011 235.015674,46.7123596 L235.292163,46.4359551 C236.490282,46.3438202 237.688401,46.3438202 238.978683,46.3438202 C240.268966,46.2516854 241.559248,46.2516854 242.941693,46.2516854 C243.494671,46.2516854 245.983072,46.1595506 247.918495,46.988764 C249.946082,47.8179775 252.250157,50.2134831 252.250157,55.2808989 C252.250157,56.1101124 252.157994,60.2561798 249.393103,62.6516854 C248.563636,63.388764 247.365517,64.0337079 245.153605,64.6786517 L248.010658,69.2853933 Z M243.77116,62.2831461 C244.416301,62.1910112 245.153605,62.0067416 245.798746,61.7303371 C247.45768,60.9932584 249.393103,59.2426966 249.393103,55.0966292 C249.393103,54.4516854 249.485266,50.3977528 246.259561,49.1078652 C244.877116,48.5550562 242.84953,48.647191 242.573041,48.647191 C241.190596,48.647191 239.900313,48.7393258 238.517868,48.8314607 C238.425705,53.3460674 238.517868,58.0449438 238.610031,62.6516854 C238.978683,62.5595506 241.651411,62.6516854 243.77116,62.2831461 Z" id="Shape" fill="#575756"></path>
            <path d="M288.101567,0.0921348315 C291.419436,0.0921348315 294,2.67191011 294,5.98876404 C294,9.30561798 291.419436,11.8853933 288.101567,11.8853933 C284.783699,11.8853933 282.110972,9.30561798 282.110972,5.98876404 C282.018809,2.67191011 284.691536,0.0921348315 288.101567,0.0921348315 L288.101567,0.0921348315 Z M288.009404,1.10561798 C285.336677,1.10561798 283.309091,3.31685393 283.309091,5.89662921 C283.309091,8.66067416 285.336677,10.7797753 288.101567,10.7797753 C290.682132,10.7797753 292.709718,8.66067416 292.709718,5.98876404 C292.709718,3.31685393 290.682132,1.10561798 288.009404,1.10561798 L288.009404,1.10561798 Z M286.995611,9.21348315 L285.889655,9.21348315 L285.889655,3.04044944 C286.534796,2.94831461 287.179937,2.85617978 288.009404,2.85617978 C289.023197,2.85617978 289.576176,3.04044944 289.944828,3.31685393 C290.31348,3.59325843 290.589969,4.05393258 290.589969,4.60674157 C290.589969,5.34382022 290.036991,5.80449438 289.39185,6.08089888 L289.39185,6.17303371 C289.944828,6.35730337 290.221317,6.91011236 290.405643,7.64719101 C290.589969,8.56853933 290.774295,8.93707865 290.866458,9.12134831 L289.668339,9.12134831 C289.484013,8.93707865 289.299687,8.38426966 289.115361,7.55505618 C288.931034,6.81797753 288.562382,6.54157303 287.732915,6.54157303 L286.995611,6.54157303 L286.995611,9.21348315 Z M286.995611,5.71235955 L287.732915,5.71235955 C288.562382,5.71235955 289.299687,5.43595506 289.299687,4.79101124 C289.299687,4.23820225 288.931034,3.77752809 287.825078,3.77752809 C287.364263,3.77752809 287.087774,3.77752809 286.903448,3.86966292 L286.903448,5.71235955 L286.995611,5.71235955 Z" id="Shape" fill="#575756"></path>
        </g>
    </g>
</svg>