<?xml version="1.0" encoding="UTF-8"?>
<svg width="265px" height="74px" viewBox="0 0 265 74" version="1.1" xmlns="http://www.w3.org/2000/svg" xmlns:xlink="http://www.w3.org/1999/xlink">
    <!-- Generator: Sketch 42 (36781) - http://www.bohemiancoding.com/sketch -->
    <title>Artboard</title>
    <desc>Created with Sketch.</desc>
    <defs></defs>
    <g id="Page-1" stroke="none" stroke-width="1" fill="none" fill-rule="evenodd">
        <g id="Artboard" fill-rule="nonzero">
            <path d="M36.468652,56.8719101 C27.4137931,56.8719101 19.854232,50.8022472 17.362069,42.4876404 L0.166144201,42.4876404 L0.166144201,66.0179775 C0.166144201,69.6764045 3.15673981,72.752809 6.89498433,72.752809 L65.2115987,72.752809 C68.8667712,72.752809 71.9404389,69.7595506 71.9404389,66.0179775 L71.9404389,42.4876404 L55.5752351,42.4876404 C53.1661442,50.8022472 45.523511,56.8719101 36.468652,56.8719101 Z" id="Shape" fill="#009BAD"></path>
            <path d="M36.468652,16.7955056 C45.523511,16.7955056 53.0830721,22.8651685 55.5752351,31.1797753 L71.9404389,31.1797753 L71.9404389,7.6494382 C71.9404389,3.99101124 68.9498433,0.914606742 65.2115987,0.914606742 L6.89498433,0.914606742 C3.23981191,0.914606742 0.166144201,3.90786517 0.166144201,7.6494382 L0.166144201,31.1797753 L17.362069,31.1797753 C19.854232,22.9483146 27.4137931,16.7955056 36.468652,16.7955056 Z" id="Shape" fill="#009BAD"></path>
            <path d="M36.468652,28.1033708 C31.6504702,28.1033708 27.7460815,32.011236 27.7460815,36.8337079 C27.7460815,41.6561798 31.6504702,45.5640449 36.468652,45.5640449 C41.2868339,45.5640449 45.1912226,41.6561798 45.1912226,36.8337079 C45.1912226,32.011236 41.2868339,28.1033708 36.468652,28.1033708 Z" id="Shape" fill="#009BAD"></path>
            <path d="M55.5752351,31.1797753 C53.0830721,22.8651685 45.523511,16.7955056 36.468652,16.7955056 C27.4137931,16.7955056 19.854232,22.8651685 17.362069,31.1797753 L0.166144201,31.1797753 L0.166144201,42.4876404 L17.362069,42.4876404 C19.854232,50.8022472 27.4137931,56.8719101 36.468652,56.8719101 C45.523511,56.8719101 53.0830721,50.8022472 55.5752351,42.4876404 L71.9404389,42.4876404 L71.9404389,31.1797753 L55.5752351,31.1797753 Z M36.468652,45.5640449 C31.6504702,45.5640449 27.7460815,41.6561798 27.7460815,36.8337079 C27.7460815,32.011236 31.6504702,28.1033708 36.468652,28.1033708 C41.2868339,28.1033708 45.1912226,32.011236 45.1912226,36.8337079 C45.1912226,41.6561798 41.2868339,45.5640449 36.468652,45.5640449 Z" id="Shape" fill="#FFFFFF"></path>
            <path d="M86.5611285,73.1685393 C86.8103448,67.1820225 86.6442006,61.1123596 86.5611285,55.0426966 C86.4780564,50.552809 86.4780564,45.8966292 86.2288401,41.4067416 L86.4780564,41.1573034 C88.0564263,41.0741573 89.7178683,41.0741573 91.2962382,41.0741573 C92.0438871,40.9910112 92.8746082,40.9910112 93.7053292,40.9910112 C94.0376176,40.9910112 96.3636364,40.9078652 98.0250784,41.5730337 C99.9357367,42.2382022 102.095611,44.2337079 102.095611,48.7235955 C102.095611,49.5550562 102.012539,53.3797753 99.1050157,55.3752809 C97.8589342,56.2067416 96.5297806,56.4561798 96.031348,56.5393258 C97.6097179,56.6224719 98.4404389,56.788764 99.1050157,57.1213483 C103.258621,58.7011236 103.424765,63.2741573 103.424765,64.4382022 C103.424765,67.847191 102.095611,71.1730337 98.7727273,72.5865169 C96.3636364,73.6674157 94.1206897,73.3348315 89.0532915,73.4179775 C88.2225705,73.4179775 87.4749216,73.5011236 86.6442006,73.5011236 L86.5611285,73.1685393 Z M89.468652,55.6247191 C91.4623824,55.6247191 93.8714734,55.7910112 95.7821317,55.0426966 C97.3605016,54.3775281 99.354232,52.7146067 99.354232,48.8067416 C99.354232,48.141573 99.4373041,44.5662921 96.3636364,43.4853933 C95.6990596,43.2359551 94.6191223,43.152809 92.9576803,43.152809 C91.7946708,43.152809 90.6316614,43.152809 89.468652,43.2359551 L89.468652,55.6247191 Z M89.468652,64.2719101 C89.5517241,66.5168539 89.5517241,68.7617978 89.6347962,71.0067416 C93.539185,71.0067416 95.6159875,71.0898876 97.3605016,70.341573 C98.8557994,69.6764045 100.600313,67.9303371 100.600313,64.2719101 C100.600313,63.4404494 100.517241,60.447191 98.0250784,58.9505618 C96.7789969,58.2022472 95.200627,57.8696629 92.2100313,57.8696629 C91.2962382,57.8696629 90.3824451,57.952809 89.468652,57.952809 L89.468652,64.2719101 L89.468652,64.2719101 Z" id="Shape" fill="#FFFFFF"></path>
            <path d="M102.594044,1.74606742 C102.4279,2.99325843 102.344828,4.24044944 102.261755,5.48764045 L101.929467,5.65393258 C101.431034,5.23820225 101.098746,4.98876404 100.517241,4.65617978 C99.9357367,4.32359551 98.523511,3.74157303 96.6959248,3.74157303 C96.031348,3.74157303 94.1206897,3.8247191 92.3761755,4.90561798 C87.5579937,7.98202247 87.7241379,15.5483146 87.7241379,16.3797753 C87.7241379,17.5438202 87.6410658,22.8651685 91.130094,26.1910112 C92.0438871,27.0224719 93.7884013,28.352809 96.7789969,28.352809 C99.8526646,28.352809 101.680251,27.0224719 102.594044,26.2741573 L102.926332,26.4404494 C102.760188,27.7707865 102.677116,29.0179775 102.677116,30.3483146 L102.4279,30.6808989 C101.26489,31.2629213 99.2711599,32.1775281 96.1144201,32.1775281 C92.5423197,32.1775281 89.5517241,31.1797753 86.976489,28.5191011 C85.0658307,26.5235955 82.822884,22.9483146 82.822884,16.5460674 C82.822884,7.23370787 87.0595611,2.66067416 90.9639498,1.08089888 C91.960815,0.665168539 93.7053292,0.0831460674 96.3636364,0.0831460674 C97.6097179,0.0831460674 99.7695925,0.166292135 102.510972,1.33033708 L102.594044,1.74606742 Z" id="Shape" fill="#FFFFFF"></path>
            <path d="M124.442006,29.2674157 C122.282132,31.3460674 119.706897,32.1775281 116.799373,32.1775281 C115.968652,32.1775281 113.725705,32.094382 111.565831,31.0966292 C106.083072,28.352809 104.670846,21.5348315 104.670846,15.9640449 C104.670846,14.8 104.587774,6.9011236 109.322884,2.74382022 C110.568966,1.66292135 112.811912,0.166292135 116.799373,0.166292135 C118.211599,0.166292135 119.706897,0.33258427 121.03605,0.831460674 C125.189655,2.41123596 128.678683,6.81797753 128.761755,16.047191 C128.761755,23.1146067 126.768025,27.0224719 124.442006,29.2674157 Z M122.032915,6.9011236 C120.288401,3.90786517 118.128527,3.5752809 116.716301,3.5752809 C116.134796,3.5752809 114.722571,3.65842697 113.310345,4.57303371 C109.15674,7.48314607 109.405956,15.7977528 109.405956,15.9640449 C109.405956,16.6292135 109.405956,22.5325843 111.815047,26.0247191 C113.061129,27.7707865 114.722571,28.7685393 116.882445,28.7685393 C117.380878,28.7685393 118.626959,28.6853933 119.873041,28.0202247 C122.365204,26.4404494 124.026646,22.5325843 124.026646,16.2134831 C124.026646,13.1370787 123.611285,9.56179775 122.032915,6.9011236 Z" id="Shape" fill="#FFFFFF"></path>
            <path d="M150.775862,8.73033708 C151.440439,6.15280899 152.188088,3.49213483 152.769592,0.914606742 L153.101881,0.665168539 C155.012539,0.665168539 156.923197,0.582022472 158.916928,0.582022472 L159.249216,0.831460674 C159.332288,4.40674157 159.415361,7.8988764 159.581505,11.4741573 L159.830721,18.458427 C159.996865,22.7820225 160.163009,27.0224719 160.412226,31.3460674 L160.163009,31.5955056 C158.750784,31.5955056 157.338558,31.5955056 155.84326,31.6786517 L155.594044,31.4292135 C155.594044,27.6876404 155.510972,24.0292135 155.510972,20.2876404 L155.261755,4.32359551 L150.775862,21.7842697 C150.028213,24.9438202 149.11442,28.1033708 148.366771,31.3460674 L148.034483,31.5955056 C146.705329,31.5955056 145.293103,31.5955056 143.880878,31.6786517 L143.548589,31.4292135 C142.80094,28.352809 142.136364,25.1932584 141.305643,22.1168539 L137.23511,4.57303371 L136.736677,18.458427 C136.653605,21.2853933 136.570533,24.0292135 136.487461,26.7730337 C136.404389,27.8539326 136.404389,28.9348315 136.404389,30.0157303 L136.404389,31.3460674 L136.0721,31.5955056 C134.826019,31.5955056 133.579937,31.6786517 132.416928,31.6786517 L132.167712,31.4292135 C132.5,27.6044944 132.666144,23.6966292 132.915361,19.8719101 L133.413793,10.1438202 C133.496865,8.81348315 133.496865,7.4 133.579937,5.98651685 C133.663009,4.24044944 133.746082,2.57752809 133.746082,0.831460674 L134.07837,0.582022472 C136.0721,0.582022472 137.982759,0.498876404 139.976489,0.498876404 L140.308777,0.748314607 C140.80721,2.99325843 141.388715,5.23820225 141.970219,7.48314607 L146.373041,25.3595506 L150.775862,8.73033708 Z" id="Shape" fill="#FFFFFF"></path>
            <path d="M170.46395,31.5955056 C169.051724,31.5955056 167.556426,31.6786517 166.144201,31.6786517 L165.894984,31.4292135 C166.061129,25.1101124 165.978056,18.8741573 165.978056,12.5550562 C165.894984,8.64719101 165.894984,4.73932584 165.645768,0.914606742 L165.894984,0.665168539 C167.141066,0.665168539 168.470219,0.665168539 169.716301,0.748314607 L175.780564,0.748314607 C177.691223,0.665168539 179.518809,0.665168539 181.429467,0.665168539 L181.678683,0.914606742 C181.595611,1.99550562 181.512539,2.99325843 181.429467,3.99101124 L181.097179,4.24044944 C178.605016,4.0741573 176.029781,4.0741573 173.537618,4.0741573 L170.46395,4.0741573 C170.46395,7.48314607 170.547022,10.8921348 170.547022,14.3842697 L172.706897,14.3842697 C174.949843,14.3011236 177.109718,14.3011236 179.352665,14.2179775 L179.601881,14.4674157 C179.518809,15.4651685 179.435737,16.5460674 179.352665,17.5438202 L179.020376,17.7932584 C176.777429,17.6269663 174.617555,17.7101124 172.374608,17.7101124 L170.46395,17.7932584 C170.547022,22.3662921 170.630094,26.8561798 170.713166,31.4292135 L170.46395,31.5955056 Z" id="Shape" fill="#FFFFFF"></path>
            <path d="M202.945141,29.2674157 C200.785266,31.3460674 198.210031,32.1775281 195.302508,32.1775281 C194.471787,32.1775281 192.22884,32.094382 190.068966,31.0966292 C184.586207,28.352809 183.173981,21.5348315 183.173981,15.9640449 C183.173981,14.8 183.090909,6.9011236 187.826019,2.74382022 C189.0721,1.66292135 191.315047,0.166292135 195.302508,0.166292135 C196.714734,0.166292135 198.210031,0.33258427 199.539185,0.831460674 C203.69279,2.41123596 207.181818,6.81797753 207.26489,16.047191 C207.26489,23.1146067 205.27116,27.0224719 202.945141,29.2674157 Z M200.53605,6.9011236 C198.791536,3.90786517 196.631661,3.5752809 195.219436,3.5752809 C194.637931,3.5752809 193.225705,3.65842697 191.81348,4.57303371 C187.659875,7.48314607 187.909091,15.7977528 187.909091,15.9640449 C187.909091,16.6292135 187.909091,22.5325843 190.318182,26.0247191 C191.564263,27.7707865 193.225705,28.7685393 195.38558,28.7685393 C195.884013,28.7685393 197.130094,28.6853933 198.376176,28.0202247 C200.868339,26.4404494 202.529781,22.5325843 202.529781,16.2134831 C202.529781,13.1370787 202.11442,9.56179775 200.53605,6.9011236 Z" id="Shape" fill="#FFFFFF"></path>
            <path d="M224.876176,21.7011236 C225.623824,23.1977528 226.537618,24.694382 227.285266,26.2741573 C228.19906,27.9370787 229.112853,29.6 230.109718,31.2629213 L229.943574,31.5955056 C228.282132,31.6786517 226.786834,31.6786517 225.125392,31.8449438 L224.710031,31.5123596 C224.045455,29.7662921 223.214734,28.0202247 222.384013,26.3573034 C221.387147,24.1955056 220.30721,21.9505618 219.310345,19.788764 L218.645768,18.2921348 C217.815047,18.3752809 216.901254,18.3752809 216.070533,18.3752809 C216.070533,20.5370787 216.153605,22.7820225 216.153605,25.0269663 C216.236677,27.188764 216.319749,29.3505618 216.402821,31.5123596 L216.153605,31.7617978 C214.658307,31.7617978 213.246082,31.8449438 211.750784,31.8449438 L211.501567,31.5955056 C211.667712,25.2764045 211.667712,19.0404494 211.584639,12.7213483 C211.501567,8.89662921 211.501567,4.90561798 211.335423,1.08089888 L211.584639,0.831460674 C213.329154,0.748314607 214.990596,0.748314607 216.73511,0.748314607 C217.648903,0.665168539 218.479624,0.665168539 219.310345,0.665168539 C221.553292,0.665168539 222.716301,0.914606742 223.713166,1.24719101 C225.873041,1.99550562 228.282132,3.99101124 228.282132,9.06292135 C228.282132,9.97752809 228.282132,13.552809 225.789969,15.8808989 C224.543887,16.9617978 223.214734,17.3775281 222.716301,17.5438202 L224.876176,21.7011236 Z M221.470219,14.1348315 C222.550157,13.4696629 223.630094,11.9730337 223.630094,9.06292135 C223.630094,6.98426966 223.131661,5.90337079 222.384013,5.15505618 C222.217868,4.98876404 221.88558,4.65617978 221.387147,4.40674157 C220.805643,4.0741573 219.89185,3.90786517 218.396552,3.90786517 C217.565831,3.90786517 216.73511,3.99101124 215.987461,4.0741573 C215.904389,7.81573034 215.904389,11.3910112 215.904389,15.0494382 C216.236677,15.0494382 219.642633,15.2988764 221.470219,14.1348315 Z" id="Shape" fill="#FFFFFF"></path>
            <path d="M236.672414,31.4292135 C236.838558,25.941573 236.755486,20.2876404 236.755486,14.8 C236.755486,11.2247191 236.838558,7.6494382 236.672414,4.0741573 C234.346395,4.15730337 231.937304,4.15730337 229.611285,4.24044944 L229.362069,3.99101124 C229.445141,2.99325843 229.528213,1.91235955 229.528213,0.914606742 L229.777429,0.665168539 L237.420063,0.665168539 C241.075235,0.582022472 244.730408,0.582022472 248.302508,0.498876404 L248.551724,0.748314607 C248.468652,1.82921348 248.38558,2.82696629 248.38558,3.90786517 L248.053292,4.15730337 C245.810345,3.99101124 243.567398,3.99101124 241.241379,3.99101124 C241.158307,9.22921348 241.324451,14.5505618 241.324451,19.788764 C241.407524,23.6134831 241.407524,27.4382022 241.573668,31.2629213 L241.241379,31.5123596 C239.829154,31.5123596 238.333856,31.5123596 236.92163,31.5955056 L236.672414,31.4292135 Z" id="Shape" fill="#FFFFFF"></path>
            <path d="M127.100313,69.4269663 C126.684953,69.9258427 125.438871,71.3393258 123.777429,72.1707865 C122.863636,72.6696629 121.285266,73.2516854 118.793103,73.2516854 C118.045455,73.2516854 115.968652,73.1685393 113.974922,72.1707865 C110.319749,70.341573 107.079937,65.8516854 107.079937,57.1213483 C107.079937,55.8741573 107.079937,50.3033708 109.738245,46.2292135 C110.070533,45.7303371 110.984326,44.4 112.396552,43.4022472 C113.559561,42.4876404 115.636364,41.3235955 119.125392,41.3235955 C120.288401,41.3235955 122.946708,41.4067416 125.438871,43.3191011 C128.263323,45.3977528 130.589342,49.5550562 130.672414,57.2044944 C130.50627,58.6179775 130.589342,64.9370787 127.100313,69.4269663 Z M124.691223,46.2292135 C122.61442,43.6516854 120.205329,43.4853933 118.876176,43.4853933 C115.968652,43.4853933 114.473354,44.6494382 113.559561,45.4808989 C113.144201,45.8966292 112.562696,46.4786517 111.898119,47.5595506 C109.821317,51.1348315 109.821317,56.2067416 109.821317,57.1213483 C109.821317,58.0359551 109.904389,64.5213483 112.978056,68.2629213 C114.556426,70.1752809 116.384013,71.0067416 118.876176,71.0067416 C119.623824,71.0067416 121.534483,70.9235955 123.278997,69.6764045 C123.694357,69.3438202 124.442006,68.6786517 125.106583,67.6808989 C126.435737,65.7685393 127.598746,62.4426966 127.598746,57.1213483 C127.681818,56.3730337 127.847962,49.9707865 124.691223,46.2292135 Z" id="Shape" fill="#FFFFFF"></path>
            <path d="M154.431034,59.6157303 C154.347962,63.6067416 154.26489,65.6022472 153.683386,67.4314607 C153.018809,69.4269663 151.689655,70.7573034 151.10815,71.1730337 C150.111285,72.0876404 148.283699,73.2516854 145.043887,73.2516854 C144.047022,73.2516854 141.554859,73.1685393 139.311912,71.4224719 C135.822884,68.6786517 135.905956,64.105618 135.905956,60.1977528 L135.905956,48.2247191 C135.905956,46.1460674 135.905956,44.0674157 135.822884,41.988764 L136.0721,41.7393258 C136.985893,41.7393258 137.899687,41.6561798 138.81348,41.6561798 L139.062696,41.905618 C138.896552,44.4831461 138.896552,47.0606742 138.896552,49.5550562 C138.81348,53.1303371 138.81348,56.6224719 138.81348,60.1977528 C138.81348,61.1955056 138.896552,62.1101124 138.896552,63.0247191 C139.145768,66.8494382 140.059561,68.6786517 141.637931,69.8426966 C142.219436,70.258427 143.382445,70.9235955 145.210031,70.9235955 C147.702194,70.9235955 149.612853,69.8426966 150.69279,67.5977528 C151.772727,65.352809 151.772727,62.6089888 151.772727,57.5370787 C151.772727,54.7932584 151.689655,52.1325843 151.689655,49.388764 C151.606583,46.9775281 151.606583,44.4831461 151.523511,42.0719101 L151.855799,41.8224719 C152.603448,41.7393258 153.351097,41.7393258 154.181818,41.7393258 L154.431034,41.988764 C154.431034,45.8966292 154.347962,49.8876404 154.347962,53.8786517 L154.347962,59.6157303 L154.431034,59.6157303 Z" id="Shape" fill="#FFFFFF"></path>
            <path d="M170.214734,60.447191 C169.30094,64.5213483 168.470219,68.5123596 167.722571,72.5865169 L167.390282,72.8359551 C166.227273,72.8359551 165.147335,72.8359551 164.067398,72.9191011 L163.818182,72.6696629 C163.153605,69.2606742 162.489028,65.8516854 161.741379,62.4426966 L160.412226,55.9573034 C159.415361,51.3842697 158.584639,46.811236 157.504702,42.1550562 L157.753918,41.905618 C158.584639,41.8224719 159.498433,41.8224719 160.412226,41.7393258 L160.661442,41.988764 C161.409091,46.9775281 162.489028,51.8831461 163.402821,56.8719101 L165.978056,70.258427 L169.882445,50.7191011 C170.214734,49.2224719 170.547022,47.7258427 170.796238,46.2292135 C171.045455,44.8988764 171.294671,43.4853933 171.543887,42.0719101 L171.876176,41.8224719 C173.122257,41.8224719 174.285266,41.7393258 175.448276,41.7393258 L175.697492,41.988764 C176.112853,43.9842697 176.528213,46.0629213 176.943574,48.141573 C177.275862,49.4719101 177.525078,50.8853933 177.857367,52.2157303 L181.429467,70.0921348 C182.34326,65.4359551 183.257053,60.7797753 184.087774,56.0404494 C184.503135,53.8786517 184.918495,51.6337079 185.333856,49.4719101 C185.749216,46.9775281 186.247649,44.4831461 186.663009,41.988764 L187.07837,41.7393258 L189.238245,41.7393258 L189.487461,41.988764 C188.822884,45.0651685 188.075235,48.3078652 187.410658,51.4674157 L185.333856,61.7775281 C184.669279,65.2696629 184.004702,68.8449438 183.340125,72.4202247 L183.007837,72.6696629 C181.9279,72.5865169 180.847962,72.6696629 179.684953,72.752809 L179.352665,72.5033708 C179.020376,70.9235955 178.688088,69.4269663 178.355799,67.847191 C178.189655,66.8494382 177.940439,65.8516854 177.691223,64.8539326 L173.371473,43.6516854 L170.214734,60.447191 Z" id="Shape" fill="#FFFFFF"></path>
            <path d="M199.373041,70.5078652 C200.619122,70.5078652 201.865204,70.5078652 203.194357,70.4247191 C204.523511,70.341573 205.935737,70.258427 207.26489,70.258427 L207.514107,70.5078652 C207.431034,71.1730337 207.347962,71.8382022 207.347962,72.5033708 L207.098746,72.752809 C204.10815,72.752809 201.034483,72.6696629 198.043887,72.752809 C196.465517,72.752809 194.887147,72.8359551 193.308777,72.8359551 L193.059561,72.5865169 C193.225705,67.2651685 193.142633,61.9438202 193.059561,56.705618 C192.976489,54.0449438 192.976489,51.3011236 192.976489,48.5573034 C192.893417,46.3955056 192.810345,44.1505618 192.727273,41.988764 L192.976489,41.7393258 C197.628527,41.8224719 202.363636,41.905618 207.015674,41.6561798 L207.26489,41.905618 C207.181818,42.5707865 207.181818,43.2359551 207.098746,43.8179775 L206.766458,44.0674157 C204.025078,43.9842697 201.200627,43.9011236 198.376176,43.9011236 L195.717868,43.9011236 C195.80094,47.7258427 195.80094,51.5505618 195.884013,55.3752809 L199.539185,55.3752809 C201.782132,55.3752809 204.025078,55.3752809 206.268025,55.2921348 L206.600313,55.541573 C206.517241,56.1235955 206.434169,56.788764 206.434169,57.3707865 L206.101881,57.6202247 C203.858934,57.5370787 201.69906,57.5370787 199.456113,57.5370787 L195.884013,57.6202247 C195.967085,61.8606742 195.967085,66.1011236 196.050157,70.341573 L199.373041,70.341573 L199.373041,70.5078652 Z" id="Shape" fill="#FFFFFF"></path>
            <path d="M223.547022,62.5258427 C224.710031,64.6044944 225.873041,66.6831461 227.119122,68.6786517 C227.866771,69.9258427 228.697492,71.2561798 229.445141,72.4202247 L229.278997,72.752809 C228.19906,72.8359551 227.202194,72.8359551 226.205329,72.9191011 L225.789969,72.6696629 C224.959248,71.2561798 224.294671,69.7595506 223.46395,68.3460674 C222.633229,66.7662921 221.719436,65.1865169 220.888715,63.6898876 C220.141066,62.2764045 219.393417,60.8629213 218.562696,59.4494382 L218.147335,58.7011236 C217.067398,58.7842697 215.987461,58.7842697 214.907524,58.7842697 C214.907524,63.3573034 214.990596,68.0134831 215.239812,72.6696629 L214.990596,72.9191011 C214.076803,72.9191011 213.246082,73.0022472 212.415361,73.0022472 L212.166144,72.752809 C212.332288,66.6831461 212.249216,60.6134831 212.083072,54.6269663 C212,50.4696629 212,46.3123596 211.833856,42.1550562 L212.083072,41.905618 C213.163009,41.8224719 214.242947,41.8224719 215.405956,41.8224719 C216.568966,41.7393258 217.731975,41.7393258 218.978056,41.7393258 C219.476489,41.7393258 221.719436,41.6561798 223.46395,42.4044944 C225.291536,43.152809 227.368339,45.3146067 227.368339,49.8876404 C227.368339,50.6359551 227.285266,54.3775281 224.793103,56.5393258 C224.045455,57.2044944 222.965517,57.7865169 220.971787,58.3685393 L223.547022,62.5258427 Z M219.725705,56.2067416 C220.30721,56.1235955 220.971787,55.9573034 221.553292,55.7078652 C223.048589,55.0426966 224.793103,53.4629213 224.793103,49.7213483 C224.793103,49.1393258 224.876176,45.4808989 221.968652,44.3168539 C220.722571,43.8179775 218.894984,43.9011236 218.645768,43.9011236 C217.399687,43.9011236 216.236677,43.9842697 214.990596,44.0674157 C214.907524,48.141573 214.990596,52.3820225 215.073668,56.5393258 C215.405956,56.4561798 217.815047,56.5393258 219.725705,56.2067416 Z" id="Shape" fill="#FFFFFF"></path>
            <path d="M259.683386,0.0831460674 C262.673981,0.0831460674 265,2.41123596 265,5.40449438 C265,8.39775281 262.673981,10.7258427 259.683386,10.7258427 C256.69279,10.7258427 254.283699,8.39775281 254.283699,5.40449438 C254.200627,2.41123596 256.609718,0.0831460674 259.683386,0.0831460674 L259.683386,0.0831460674 Z M259.600313,0.997752809 C257.191223,0.997752809 255.363636,2.99325843 255.363636,5.32134831 C255.363636,7.81573034 257.191223,9.72808989 259.683386,9.72808989 C262.009404,9.72808989 263.836991,7.81573034 263.836991,5.40449438 C263.836991,2.99325843 262.009404,0.997752809 259.600313,0.997752809 L259.600313,0.997752809 Z M258.68652,8.31460674 L257.689655,8.31460674 L257.689655,2.74382022 C258.27116,2.66067416 258.852665,2.57752809 259.600313,2.57752809 C260.514107,2.57752809 261.012539,2.74382022 261.344828,2.99325843 C261.677116,3.24269663 261.926332,3.65842697 261.926332,4.15730337 C261.926332,4.82247191 261.4279,5.23820225 260.846395,5.48764045 L260.846395,5.57078652 C261.344828,5.73707865 261.594044,6.23595506 261.760188,6.9011236 C261.926332,7.73258427 262.092476,8.06516854 262.175549,8.23146067 L261.095611,8.23146067 C260.929467,8.06516854 260.763323,7.56629213 260.597179,6.81797753 C260.431034,6.15280899 260.098746,5.90337079 259.351097,5.90337079 L258.68652,5.90337079 L258.68652,8.31460674 Z M258.68652,5.15505618 L259.351097,5.15505618 C260.098746,5.15505618 260.763323,4.90561798 260.763323,4.32359551 C260.763323,3.8247191 260.431034,3.40898876 259.434169,3.40898876 C259.018809,3.40898876 258.769592,3.40898876 258.603448,3.49213483 L258.603448,5.15505618 L258.68652,5.15505618 Z" id="Shape" fill="#FFFFFF"></path>
        </g>
    </g>
</svg>