<svg xmlns="http://www.w3.org/2000/svg" viewBox="0 0 364.21 79.17"><title>logo_big</title><path d="M24.06,22.61c-.2,1.39-.3,2.78-.4,4.27l-.4.2A9.85,9.85,0,0,0,21.57,26a9.34,9.34,0,0,0-4.37-1,9.7,9.7,0,0,0-4.87,1.29C6.76,29.67,7,38.32,7,39.21c0,1.29-.1,7.36,3.88,11.13a9,9,0,0,0,6.46,2.49,10,10,0,0,0,6.56-2.39l.4.2a32.71,32.71,0,0,0-.3,4.47l-.3.4A14.71,14.71,0,0,1,16.4,57.2c-4.08,0-7.55-1.09-10.34-4.17-2.19-2.29-4.77-6.36-4.77-13.62,0-10.64,4.77-15.8,9.24-17.69a16.89,16.89,0,0,1,6.16-1.19,17.4,17.4,0,0,1,7,1.39Zm25,31.31a11.9,11.9,0,0,1-8.75,3.28,15.3,15.3,0,0,1-6-1.19c-6.26-3.18-7.85-10.93-7.85-17.3,0-1.29-.1-10.34,5.37-15.11a12.47,12.47,0,0,1,8.55-2.88,12.67,12.67,0,0,1,4.77.8C50,23.31,54,28.38,54.08,38.91,54,46.87,51.69,51.34,49.11,53.92ZM46.32,28.38c-2-3.38-4.47-3.78-6.16-3.78a7.39,7.39,0,0,0-3.88,1.09c-4.77,3.38-4.57,12.82-4.57,13,0,.8,0,7.46,2.78,11.43a6.7,6.7,0,0,0,5.77,3.08,7.26,7.26,0,0,0,3.38-.89c2.88-1.79,4.77-6.26,4.67-13.52C48.51,35.54,48.11,31.36,46.32,28.38ZM79,30.47c.8-2.88,1.59-6,2.29-8.95l.4-.2c2.19,0,4.37-.1,6.56-.1l.4.3c.1,4.08.2,8.05.4,12.13l.3,8c.2,4.87.4,9.84.7,14.61l-.3.3c-1.69,0-3.28,0-4.87.1l-.3-.3c0-4.27-.1-8.45-.1-12.72l-.3-18.29-5.07,20c-.89,3.68-1.89,7.26-2.78,10.93l-.4.3c-1.59,0-3.08,0-4.67.1l-.5-.2c-.89-3.58-1.69-7.16-2.58-10.64l-4.67-20L63,41.7c-.1,3.18-.2,6.36-.3,9.44-.1,1.19-.1,2.49-.1,3.68v1.49l-.4.3c-1.39,0-2.78.1-4.17.1l-.2-.3c.4-4.37.6-8.75.89-13.22l.5-11c.1-1.59.1-3.18.2-4.77.1-2,.2-3.88.2-5.86l.4-.3c2.19,0,4.57-.1,6.76-.1l.4.3c.5,2.58,1.19,5.17,1.89,7.75l5,20.38Zm22.56,26.14c-1.69,0-3.28.1-5,.1l-.3-.3c.2-7.16.1-14.41.1-21.57-.1-4.47-.1-8.85-.4-13.32l.3-.3c1.39,0,2.88,0,4.37.1h7c2.09-.1,4.27-.1,6.36-.1l.3.3L114,25.1l-.4.3c-2.88-.2-5.77-.2-8.65-.2h-3.58c0,3.88.1,7.85.1,11.73H104c2.58-.1,5-.1,7.65-.2l.3.3c-.1,1.19-.2,2.39-.3,3.48l-.4.3c-2.58-.2-5-.1-7.55-.1l-2.19.1c.1,5.27.2,10.34.3,15.51Zm37.08-2.68a11.9,11.9,0,0,1-8.75,3.28A15.3,15.3,0,0,1,124,56c-6.26-3.18-7.85-10.93-7.85-17.3,0-1.29-.1-10.34,5.37-15.11A12.47,12.47,0,0,1,130,20.72a12.67,12.67,0,0,1,4.77.8c4.77,1.79,8.75,6.86,8.85,17.4C143.54,46.87,141.35,51.34,138.67,53.92Zm-2.78-25.55c-2-3.38-4.47-3.78-6.16-3.78a7.39,7.39,0,0,0-3.88,1.09c-4.77,3.38-4.57,12.82-4.57,13,0,.8,0,7.46,2.78,11.43a6.7,6.7,0,0,0,5.77,3.08,7.26,7.26,0,0,0,3.38-.89c2.88-1.79,4.77-6.26,4.67-13.52C138.07,35.54,137.67,31.36,135.88,28.38Zm27.73,16.9c.89,1.69,1.89,3.48,2.78,5.17,1,1.89,2.09,3.78,3.18,5.67l-.2.4c-1.89.1-3.68.1-5.47.3l-.4-.4a44.42,44.42,0,0,0-2.68-5.86c-1.19-2.49-2.39-5-3.48-7.46l-.8-1.79c-1,.1-2,.1-2.88.1,0,2.49.1,5,.1,7.55s.2,4.87.3,7.36l-.3.3c-1.69,0-3.38.1-5,.1l-.3-.3c.2-7.16.2-14.41.1-21.57-.1-4.37-.1-8.85-.3-13.32l.3-.3c2-.1,3.88-.1,5.86-.1,1-.1,2-.1,2.88-.1a18.28,18.28,0,0,1,5.07.6c2.49.89,5.27,3.18,5.27,8.85,0,1,0,5.07-2.88,7.75a10.15,10.15,0,0,1-3.48,1.89l2.29,5.17Zm-3.78-8.65c1.19-.8,2.49-2.49,2.49-5.77a6.11,6.11,0,0,0-1.39-4.47,4.52,4.52,0,0,0-1.19-.89,6.8,6.8,0,0,0-3.38-.6,24.44,24.44,0,0,0-2.78.2c-.1,4.27-.1,8.35-.1,12.52C153.78,37.72,157.75,37.92,159.84,36.63Zm17.3,19.78c.2-6.26.1-12.72.1-19,0-4.08.1-8.15-.1-12.23-2.68.1-5.37.1-8.05.2l-.3-.3c.1-1.19.2-2.39.2-3.58l.3-.3h8.65c4.17-.1,8.35-.1,12.43-.2l.3.3c-.1,1.19-.2,2.39-.2,3.58l-.4.3c-2.58-.2-5.17-.2-7.75-.2-.1,6.06.1,12,.1,18.09.1,4.37.1,8.75.3,13.12l-.4.3c-1.69,0-3.28,0-5,.1l-.2-.2Zm25.55,0c.3-6.56.1-13.22,0-19.88-.1-5-.1-10-.4-15l.3-.3c1.79-.1,3.58-.1,5.37-.1a24.22,24.22,0,0,1,2.68-.1,13.71,13.71,0,0,1,4.67.6c2.09.7,4.57,2.88,4.57,7.85,0,.89-.1,5.07-3.28,7.26a6.42,6.42,0,0,1-3.38,1.19,10.27,10.27,0,0,1,3.38.6c4.57,1.79,4.77,6.76,4.77,8.05,0,3.68-1.49,7.36-5.07,8.85-2.68,1.19-5.17.89-10.64,1-.89,0-1.79.1-2.58.1Zm3.18-19.28c2.19,0,4.87.2,7-.6,1.69-.7,3.88-2.58,3.88-6.86,0-.7.1-4.67-3.28-5.77a10.6,10.6,0,0,0-3.68-.4c-1.29,0-2.58,0-3.78.1l-.1,13.52Zm.1,9.54c.1,2.49.1,5,.2,7.36,4.27,0,6.56.1,8.45-.7,1.59-.7,3.58-2.58,3.58-6.66,0-.89-.1-4.17-2.88-5.86-1.29-.89-3.08-1.19-6.36-1.19-1,0-2.09.1-3,.1v7Zm42.74,6.16A13.44,13.44,0,0,1,244.93,56a12.65,12.65,0,0,1-5.67,1.19A12.8,12.8,0,0,1,233.79,56c-4.17-2.09-7.85-7.26-7.85-17.2,0-1.39,0-7.75,3.08-12.43a13.1,13.1,0,0,1,3-3.28,12.07,12.07,0,0,1,7.65-2.39A11.38,11.38,0,0,1,246.82,23c3.18,2.39,5.86,7.16,6,15.9C252.68,40.51,252.78,47.66,248.7,52.83ZM246,26.29a8,8,0,0,0-6.56-3.08,8.07,8.07,0,0,0-6.06,2.29,8.9,8.9,0,0,0-1.89,2.39c-2.39,4.08-2.39,9.84-2.39,10.93s.1,8.45,3.68,12.72a7.92,7.92,0,0,0,6.66,3.08A8.43,8.43,0,0,0,244.53,53a11.2,11.2,0,0,0,2.09-2.19c1.49-2.09,2.78-6.06,2.88-12C249.4,37.92,249.6,30.57,246,26.29Zm33.9,15.31c-.1,4.57-.2,6.86-.89,8.95a11.85,11.85,0,0,1-2.88,4.27c-1.19,1.09-3.18,2.39-7,2.39a10.32,10.32,0,0,1-6.46-2.09c-4-3.08-3.88-8.35-3.88-12.82V28.78c0-2.39,0-4.77-.1-7.16l.3-.3c1.09,0,2.09-.1,3.08-.1l.3.3c-.2,2.88-.2,5.86-.2,8.75-.1,4.08-.1,8.05-.1,12.13,0,1.09.1,2.09.1,3.18.3,4.37,1.29,6.46,3.08,7.75a6.79,6.79,0,0,0,4.08,1.19,6.44,6.44,0,0,0,6.26-3.78c1.19-2.58,1.19-5.67,1.19-11.53,0-3.08-.1-6.16-.1-9.34-.1-2.78-.1-5.57-.2-8.35l.4-.3a24.22,24.22,0,0,1,2.68-.1l.3.3c0,4.57-.1,9-.1,13.62l.1,6.56Zm18,.89c-1,4.57-2,9.24-2.88,13.82l-.4.3c-1.29,0-2.58,0-3.78.1l-.3-.3c-.7-3.88-1.49-7.85-2.39-11.63l-1.49-7.36c-1.09-5.27-2.09-10.44-3.28-15.71l.3-.3c1-.1,2-.1,3-.2l.3.3c.89,5.67,2.09,11.33,3.08,16.9l2.88,15.21,4.47-22.27c.4-1.69.7-3.38,1.09-5.07l.89-4.77.4-.3c1.39,0,2.78-.1,4.08-.1l.3.3c.5,2.29,1,4.67,1.39,7,.4,1.59.6,3.08,1,4.67l4.08,20.38c1.09-5.37,2.09-10.64,3.08-16,.5-2.49,1-5,1.39-7.55.5-2.88,1.09-5.67,1.49-8.55l.4-.3h2.49l.3.3c-.8,3.58-1.59,7.26-2.39,10.83L315,43.88c-.8,4-1.59,8.05-2.19,12.13l-.4.3a22.74,22.74,0,0,0-3.68.1l-.4-.3c-.4-1.79-.7-3.58-1.19-5.37-.2-1.19-.5-2.29-.7-3.48l-4.77-24ZM331.21,54c1.39,0,2.88,0,4.37-.1s3.08-.2,4.57-.2l.3.3a16.25,16.25,0,0,0-.2,2.19l-.3.3c-3.48,0-7-.1-10.34,0-1.79,0-3.58.1-5.37.1l-.3-.3c.2-6.06.1-12.13,0-18.19-.1-3.08-.1-6.16-.1-9.24-.1-2.49-.2-5-.3-7.55l.3-.3c5.37.1,10.74.2,16-.1l.3.3c-.1.7-.1,1.49-.2,2.19l-.4.3c-3.18-.1-6.36-.2-9.54-.2h-3.08c.1,4.37.1,8.75.2,13.12h4.17c2.58,0,5.07,0,7.75-.1l.4.3a14.83,14.83,0,0,0-.2,2.09l-.4.3c-2.58-.1-5.07-.1-7.65-.1l-4.08.1c.1,4.87.1,9.64.2,14.51l3.88.3Zm27.53-9c1.29,2.39,2.68,4.67,4.08,7,.89,1.39,1.79,2.88,2.68,4.27l-.2.4c-1.19.1-2.39.1-3.58.2l-.4-.3c-1-1.59-1.79-3.28-2.68-5s-2-3.58-2.88-5.37l-2.68-4.77-.5-.89c-1.19.1-2.49.1-3.68.1,0,5.17.1,10.54.4,15.8l-.3.3c-1,0-2,.1-2.88.1l-.3-.3c.2-7,.1-13.82-.1-20.68-.1-4.67-.1-9.44-.3-14.21l.3-.3c1.19-.1,2.49-.1,3.68-.1s2.68-.1,4.08-.1a14.94,14.94,0,0,1,5.17.7c2.09.89,4.57,3.38,4.57,8.55,0,.89-.1,5.07-2.88,7.55A12.69,12.69,0,0,1,356,40l2.78,5Zm-4.27-7.26a15.89,15.89,0,0,0,2.09-.5c1.79-.8,3.68-2.58,3.68-6.86,0-.6.1-4.87-3.28-6.16a10.51,10.51,0,0,0-3.78-.5c-1.39,0-2.78.1-4.17.2-.1,4.67,0,9.44.1,14.21.4-.1,3.18,0,5.37-.4Z" transform="translate(-1.29 -20.53)" style="fill:#585856"/><path d="M182.95,84.34c1.9-1.2,3.09-2.49,3.49-4a.75.75,0,0,0,.1-.4c0-.4-.4-.5-1.1-.5s-1.8.6-3.29,1.8a21.85,21.85,0,0,0-4.39,4.89,1.27,1.27,0,0,0,.6.1c1.2,0,2.69-.7,4.59-1.9ZM153.12,95.41A78.71,78.71,0,0,0,158,85.83L160.41,80c-3-.1-4.49-.4-4.49-1.1a1,1,0,0,1,.4-.7,1.33,1.33,0,0,1,.7-.3l4.19.1a33.08,33.08,0,0,1,4.49-7.68H146V99.7h2.59a12.91,12.91,0,0,0,4.49-4.29Zm18.55-23.54c-.2,0-.3-.1-.4-.4a1.35,1.35,0,0,0-1.3-.7c-1.4,0-2.69,1-3.89,2.89-.2.4-1,1.8-2.19,4.19h.5c2.79,0,4.79-.1,5.89-.1,2.69-4.39,4.79-6.88,6.28-7.58h-4.09v.2c0,1-.3,1.5-.8,1.5Z" transform="translate(-1.29 -20.53)" style="fill:none"/><path d="M178.66,71.07c-.7.9-2,2.69-4,5.29s-3.29,4.49-4.09,5.69-1.3,2-1.7,2.59-.6,1-.8,1.3a6.64,6.64,0,0,0-.6,1.2,6.38,6.38,0,0,0-.7,2.79c0,.9.5,1.3,1.5,1.3a7.16,7.16,0,0,0,3.79-1.6,26,26,0,0,0,2.69-2.19,15,15,0,0,1,3.59-5.29c2.59-2.69,5-4.09,7.08-4.09a3.09,3.09,0,0,1,1.7.5,1.76,1.76,0,0,1,.6,1.3c0,1.7-1.3,3.29-3.79,4.79s-4.59,2.29-6.18,2.29c-.2,0-.4-.1-.6-.1a5.92,5.92,0,0,0-.7,2.59c0,1.6.7,2.29,2.19,2.29s3.39-1,5.69-3c1.2-1,2.19-1.9,3.19-2.89s2-2.59,3.39-4.69a35.65,35.65,0,0,1,3.39-4.59,3.21,3.21,0,0,1,1.9-1,2.26,2.26,0,0,1,1.3.3c.3.2.4.4.3.9a4.24,4.24,0,0,0-.2,1.1,3.08,3.08,0,0,0-.1,1,26,26,0,0,0-.3,3.39c1.4-1.4,4.79-4.29,9.88-8.58a.37.37,0,0,1,.3-.1c.2,0,.3.1.6.4s.4.5.4.7a.86.86,0,0,1-.4.7c-1,.7-2.59,2-5,3.69a71.3,71.3,0,0,0-5.89,4.69,18.53,18.53,0,0,0-.1,2.59,8.83,8.83,0,0,0,.4,2.89c.4,1.2,1,1.8,2,1.8,1.7,0,4.09-1.9,7.48-5.69.4-.7.8-1.6,1.3-2.39,1.8-2.79,3.19-4.29,4.19-4.29a1.61,1.61,0,0,1,1,.4.79.79,0,0,1,.5.7,4.22,4.22,0,0,0-.5.7,5,5,0,0,1-.7.8c-.2.3-.6.7-1,1.3s-.8,1.1-1.2,1.6C208.29,87,207.09,89,207.09,90s.4,1.6,1.1,1.6a5.34,5.34,0,0,0,2.59-1,23.29,23.29,0,0,0,5.89-5.09c.1-.1.1-.2.2-.2a60.43,60.43,0,0,1,4.29-7.18c3.49-5,6.18-7.58,8-7.58a1.66,1.66,0,0,1,1.1.4,1,1,0,0,1,.5.9c0-.1-.2.2-.6.7s-1.6,1.8-3.49,3.89-3.79,4.39-5.69,6.88-2.79,4.39-2.79,5.79a3,3,0,0,0,.3,1.2,1,1,0,0,0,1,.6c1.3,0,2.79-1,4.59-3.09a14.21,14.21,0,0,0,2.69-4.49,7.53,7.53,0,0,1-.3-2.29c0-2,.6-3.09,1.9-3.09a.6.6,0,0,1,.4.1c.5.1.7.5.7,1.2a9.13,9.13,0,0,1-.4,2.59c-.2.7-.4,1.3-.5,1.8a6.39,6.39,0,0,0,.7,1.9,1.89,1.89,0,0,0,1.7,1.2,3.82,3.82,0,0,0,2.39-1.4l.3-.3c.9-1.8,2.09-4,3.69-6.58,2.89-4.79,5.19-7.58,6.68-8.28H177.76c.1.1.2.1.2.2.5.3.7.5.7.7Zm37.41,3a3.25,3.25,0,0,1,1.3.4,1.21,1.21,0,0,1,.6,1,1.39,1.39,0,0,1-.5,1,1.92,1.92,0,0,1-1.2.4,1.84,1.84,0,0,1-1.2-.5,1.27,1.27,0,0,1-.5-1.1c-.2-.8.4-1.2,1.5-1.2Zm34.61,10.27c1.9-1.2,3.09-2.49,3.49-4a.75.75,0,0,0,.1-.4c0-.4-.4-.5-1.1-.5s-1.8.6-3.29,1.8a21.85,21.85,0,0,0-4.39,4.89,1.27,1.27,0,0,0,.6.1c1.2,0,2.69-.7,4.59-1.9Zm88.48,2.39A74.88,74.88,0,0,1,333.58,96a19.55,19.55,0,0,1-3.29,3.59h11.87V81.54a4.34,4.34,0,0,0-.4.7C340.76,84,339.86,85.53,339.16,86.73Zm.5-8.28c-1.9,0-4.29,1.4-7.28,4.29s-4.49,5.09-4.49,7c0,1.1.4,1.6,1.1,1.6,1.7,0,4.09-1.9,7.08-5.69l4.79-6.48A1.3,1.3,0,0,0,339.66,78.45Z" transform="translate(-1.29 -20.53)" style="fill:none"/><path d="M164.4,77.65c2.79,0,4.79-.1,5.89-.1,2.59-4,4.49-6.38,5.89-7.28h-3.69c0,.9-.3,1.4-.8,1.4-.1,0-.3-.2-.4-.4a1.35,1.35,0,0,0-1.3-.7c-1.4,0-2.69,1-3.89,2.89-.3.4-1,1.8-2.19,4.19h.5Zm175.17.4c-1.8,0-4.29,1.4-7.28,4.29s-4.49,5.19-4.49,7c0,1.1.4,1.6,1.1,1.6,1.7,0,4.09-1.9,7.08-5.69l4.69-6.48c-.1-.5-.5-.7-1.1-.7ZM182.95,84c1.9-1.2,3.09-2.49,3.49-4a.75.75,0,0,0,.1-.4c0-.4-.4-.5-1.1-.5s-1.9.6-3.29,1.8a21.85,21.85,0,0,0-4.39,4.89,1.27,1.27,0,0,0,.6.1,10.85,10.85,0,0,0,4.59-1.9Z" transform="translate(-1.29 -20.53)" style="fill:#0e9cae"/><path d="M228.84,83.54a7.55,7.55,0,0,0,.7,1.9,1.89,1.89,0,0,0,1.7,1.2,3.82,3.82,0,0,0,2.39-1.4c.1-.2.2-.2.3-.3.9-1.8,2.09-4,3.69-6.58,2.79-4.59,4.89-7.28,6.38-8.08H178.26a1.15,1.15,0,0,1,.5.7c-.7.9-2,2.69-4,5.29s-3.29,4.59-4.09,5.69-1.3,2-1.7,2.59-.6,1-.8,1.3a6.64,6.64,0,0,0-.6,1.2,6.08,6.08,0,0,0-.7,2.79c0,.9.5,1.3,1.5,1.3a7.16,7.16,0,0,0,3.79-1.6,17.36,17.36,0,0,0,2.69-2.19A15,15,0,0,1,178.46,82c2.59-2.69,5-4.09,7.08-4.09a3.36,3.36,0,0,1,1.7.5,1.76,1.76,0,0,1,.6,1.3c0,1.7-1.3,3.29-3.79,4.79a12.17,12.17,0,0,1-6.18,2.29,3.53,3.53,0,0,1-.6-.1,4.83,4.83,0,0,0-.7,2.59c0,1.6.7,2.29,2.19,2.29s3.39-1,5.69-3c1.2-1,2.19-1.9,3.19-2.89s2-2.59,3.39-4.69a35.65,35.65,0,0,1,3.39-4.59,2.73,2.73,0,0,1,1.9-1,2.26,2.26,0,0,1,1.3.3c.3.2.3.4.3.9s-.1.7-.2,1.1a3.08,3.08,0,0,0-.1,1,24.66,24.66,0,0,0-.3,3.39c1.5-1.4,4.79-4.29,9.88-8.58a.37.37,0,0,1,.3-.1.72.72,0,0,1,.6.4c.3.3.4.5.4.7a1,1,0,0,1-.4.7c-1,.8-2.59,2-5,3.69a71.3,71.3,0,0,0-5.89,4.69,18.53,18.53,0,0,0-.1,2.59,12.66,12.66,0,0,0,.4,2.89c.4,1.2,1,1.8,2,1.8q2.39,0,7.48-5.69c.4-.7.8-1.6,1.3-2.39,1.8-2.89,3.19-4.29,4.19-4.29a2.59,2.59,0,0,1,1,.4.79.79,0,0,1,.5.7,4.22,4.22,0,0,0-.5.7,5.7,5.7,0,0,0-.7.8,15.71,15.71,0,0,1-1,1.3,13.25,13.25,0,0,0-1.2,1.6c-2.19,2.89-3.39,4.89-3.39,5.89s.4,1.6,1.1,1.6a5.34,5.34,0,0,0,2.59-1,21.47,21.47,0,0,0,5.89-5.09c.1-.1.1-.2.2-.2a60.43,60.43,0,0,1,4.29-7.18c3.49-5,6.18-7.58,8-7.58a2.45,2.45,0,0,1,1.1.4c.3.3.5.5.5.9,0,0-.2.2-.6.7s-1.6,1.8-3.49,3.89-3.79,4.39-5.69,6.88-2.79,4.39-2.79,5.79a3,3,0,0,0,.3,1.2,1,1,0,0,0,1,.6c1.3,0,2.79-1,4.59-3.09a14.21,14.21,0,0,0,2.69-4.49,7.53,7.53,0,0,1-.3-2.29c0-2,.6-3.09,1.9-3.09.2,0,.3,0,.4.1.5.1.7.5.7,1.2a16.59,16.59,0,0,1-.4,2.59,16.41,16.41,0,0,1-.3,1.8Zm-11.47-7.38a1.92,1.92,0,0,1-1.2.4,2.35,2.35,0,0,1-1.3-.5,1.27,1.27,0,0,1-.5-1.1c0-.8.6-1.2,1.7-1.2a2.83,2.83,0,0,1,1.3.4,1.21,1.21,0,0,1,.6,1A1.79,1.79,0,0,1,217.36,76.16ZM250.68,84c1.9-1.2,3.09-2.49,3.49-4a.75.75,0,0,0,.1-.4c0-.4-.4-.5-1.1-.5s-1.9.6-3.29,1.8a21.85,21.85,0,0,0-4.39,4.89,1.27,1.27,0,0,0,.6.1,11.37,11.37,0,0,0,4.59-1.9Z" transform="translate(-1.29 -20.53)" style="fill:#0e9cae"/><path d="M277.12,70.17c.2.2.2.4.3.5-.7.9-2,2.69-4,5.29s-3.29,4.59-4.09,5.69-1.3,2-1.7,2.59-.6,1-.8,1.3a6.64,6.64,0,0,0-.6,1.2,6.08,6.08,0,0,0-.7,2.79c0,.9.5,1.3,1.5,1.3a7.16,7.16,0,0,0,3.79-1.6,23.18,23.18,0,0,0,4.29-4.09c.4-.8.9-1.7,1.4-2.59,1.8-2.89,3.19-4.29,4.19-4.29a2.59,2.59,0,0,1,1,.4.79.79,0,0,1,.5.7,4.22,4.22,0,0,0-.5.7,5.7,5.7,0,0,0-.7.8,15.71,15.71,0,0,1-1,1.3,13.25,13.25,0,0,0-1.2,1.6c-2.19,2.89-3.39,4.89-3.39,5.89s.4,1.6,1.1,1.6a5.34,5.34,0,0,0,2.59-1A21.47,21.47,0,0,0,285,85.14a8.16,8.16,0,0,1,.8-.9l.3-.6c1.4-3.79,2.39-5.89,2.89-6.38a.84.84,0,0,1,.6-.2c.3,0,.5.2.9.4a1.9,1.9,0,0,1,.5,1c0,.1-.7,1.8-2.19,5.19s-2.19,5.49-2.09,6.09c1.3-.4,3.49-2,6.88-4.69s4.89-5.19,4.89-7.38a3,3,0,0,0-2-2.79.53.53,0,0,1-.3-.4c0-.3.2-.4.5-.4A3.16,3.16,0,0,1,299,75a3.37,3.37,0,0,1,1,2.49c0,2.39-1.9,5.29-5.79,8.78-3.29,3-5.89,4.79-8,5.49a3.62,3.62,0,0,1-1.3-.5c-.5-.3-.8-.6-.8-1a20.49,20.49,0,0,1,1.2-4.09,15.37,15.37,0,0,0-1.3,1.4l-.8.8a7.49,7.49,0,0,1-.8.7c-.4.4-.7.6-.9.8a9.66,9.66,0,0,1-.9.7,3.73,3.73,0,0,1-1,.6,9.27,9.27,0,0,1-1,.5,5.07,5.07,0,0,1-2.19.4c-1.6,0-2.29-1-2.29-2.89a7.85,7.85,0,0,1,.4-2c-2.79,3.09-5.19,4.59-7.18,4.59a4.08,4.08,0,0,1-2.49-.7,2.39,2.39,0,0,1-1-2.09,12.08,12.08,0,0,1,.7-3.39,57.41,57.41,0,0,1,4.19-7.68c2.59-4.19,4.59-6.88,6.09-8H246a1,1,0,0,1,.5.7c-.7.9-2,2.69-4,5.29s-3.29,4.59-4.09,5.69-1.3,2-1.7,2.59-.6,1-.8,1.3a6.64,6.64,0,0,0-.6,1.2,6.08,6.08,0,0,0-.7,2.79c0,.9.5,1.3,1.5,1.3a7.16,7.16,0,0,0,3.79-1.6,17.36,17.36,0,0,0,2.69-2.19,15,15,0,0,1,3.59-5.29c2.59-2.69,5-4.09,7.08-4.09a3.36,3.36,0,0,1,1.7.5,1.76,1.76,0,0,1,.6,1.3c0,1.7-1.3,3.29-3.79,4.79a12.17,12.17,0,0,1-6.18,2.29,3.53,3.53,0,0,1-.6-.1,4.83,4.83,0,0,0-.7,2.59c0,1.6.7,2.29,2.19,2.29s3.39-1,5.69-3a26.07,26.07,0,0,0,4.69-4.69c.3-.4.5-.5.7-.5a.26.26,0,0,1,.3.3c0,.2-.2.4-.4.7a28,28,0,0,1-5.79,5.59c-2.29,1.7-4.19,2.49-5.79,2.49a2.91,2.91,0,0,1-.9-.2c-1.9-.5-2.79-1.6-2.79-3.19,0-.2.1-.4.1-.6-2.39,2.29-4.39,3.39-6.09,3.39a4.08,4.08,0,0,1-2.49-.7,2.39,2.39,0,0,1-1-2.09,8.06,8.06,0,0,1,.4-2.49,3,3,0,0,1-2,.7c-1.4,0-2.59-1.1-3.49-3.19a16.23,16.23,0,0,1-3.89,5.49,7.33,7.33,0,0,1-5,2.29q-2.39,0-2.39-3.59a6.87,6.87,0,0,1,.2-1.3l-.7.7-.8.8a7.49,7.49,0,0,1-.8.7c-.4.4-.7.6-.9.8a9.66,9.66,0,0,1-.9.7,3.73,3.73,0,0,1-1,.6,9.27,9.27,0,0,1-1,.5,5.07,5.07,0,0,1-2.19.4c-1.6,0-2.29-1-2.29-2.89a5.91,5.91,0,0,1,.4-2.09,31.39,31.39,0,0,1-2.59,2.59c-2.09,1.8-4,2.69-5.39,2.69S196,91,195.62,89a17,17,0,0,1-.3-3.69,63.28,63.28,0,0,0-8.18,10.47.52.52,0,0,1-.4.2c-.4,0-.5-.2-.5-.5a.35.35,0,0,1,.1-.2,76.25,76.25,0,0,1,9-11.47c.1-4.09.2-6.38.2-6.88-.7.2-2.09,1.9-4.39,5.19a14.6,14.6,0,0,1-.9,1.3l-.3.6a27,27,0,0,1-2.79,3.09l-.4.4h-.1c-.8.7-1.7,1.4-2.59,2.09-2.29,1.7-4.19,2.49-5.79,2.49a2.91,2.91,0,0,1-.9-.2c-1.9-.5-2.79-1.6-2.79-3.19,0-.2.1-.4.1-.6-2.39,2.29-4.39,3.39-6.09,3.39a4.08,4.08,0,0,1-2.49-.7,2.39,2.39,0,0,1-1-2.09,12.08,12.08,0,0,1,.7-3.39A57.41,57.41,0,0,1,170,77.65a.1.1,0,0,0,.1-.1,19.22,19.22,0,0,1-2,.5c-2,.3-3.59.6-4.89.9-1,1.9-2.09,4.19-3.39,6.78-2.69,5-4.39,8.08-5.29,9.38a31.59,31.59,0,0,1-3.09,3.69H149a11.17,11.17,0,0,0,4.39-4.09,78.71,78.71,0,0,0,4.89-9.58l2.39-5.79c-3-.1-4.49-.4-4.49-1.1a1,1,0,0,1,.4-.7,1.33,1.33,0,0,1,.7-.3l4.19.1A31.31,31.31,0,0,1,165.79,70H146.34V99.3H342.46V70.17H277.12Zm8.58,5.89a1.92,1.92,0,0,1-1.2.4,1.84,1.84,0,0,1-1.2-.5,1.27,1.27,0,0,1-.5-1.1c0-.8.6-1.2,1.7-1.2a2.83,2.83,0,0,1,1.3.4c.4.3.6.6.5,1a1.32,1.32,0,0,1-.6,1Zm22.25-2.39a2.83,2.83,0,0,1,1.3.4,1.21,1.21,0,0,1,.6,1,1.39,1.39,0,0,1-.5,1,1.92,1.92,0,0,1-1.2.4,2.1,2.1,0,0,1-1.3-.5,1.27,1.27,0,0,1-.5-1.1C306.25,74.06,306.84,73.66,307.94,73.66Zm34.22,7.58a4.34,4.34,0,0,0-.4.7c-1,1.8-1.9,3.39-2.59,4.59a90.11,90.11,0,0,1-5.59,9.28,19.55,19.55,0,0,1-3.29,3.59h-2.89a10,10,0,0,0,3.29-2.79,36.65,36.65,0,0,0,4.19-6.48l2.19-4.39-3.39,3.39c-2.09,2.09-3.59,3.09-4.39,3.09a3.49,3.49,0,0,1-2.19-.8A2.84,2.84,0,0,1,325.9,89a4.52,4.52,0,0,1,.3-1.6c-3,3.29-5.19,4.89-6.48,4.89s-2.19-.8-2.19-2.39a11.37,11.37,0,0,1,1.8-5.59l2.79-4.69a31.4,31.4,0,0,0-5.39,4.89c-1.6,1.8-3.09,3.49-4.29,5.09s-2,2.49-2.19,2.49a1.43,1.43,0,0,1-1.1-.5,2.29,2.29,0,0,1-.4-1.4,6.06,6.06,0,0,1,.6-2.19c.4-1,.9-2,1.5-3.39l-1.3,1.3-.3.3c-.6.7-1.2,1.3-1.6,1.7l-.8.8a7.49,7.49,0,0,1-.8.7c-.4.4-.7.6-.9.8a9.66,9.66,0,0,1-.9.7,3.73,3.73,0,0,1-1,.6,9.27,9.27,0,0,1-1,.5,5.07,5.07,0,0,1-2.19.4c-1.6,0-2.29-1-2.29-2.89,0-1.6.9-3.89,2.59-6.68s3.19-4.29,4.19-4.29a2.59,2.59,0,0,1,1,.4.79.79,0,0,1,.5.7,4.22,4.22,0,0,0-.5.7,5.7,5.7,0,0,0-.7.8,15.71,15.71,0,0,1-1,1.3c-.4.6-.9,1.1-1.2,1.6-2.19,2.89-3.39,4.89-3.39,5.89s.4,1.6,1.1,1.6a5.34,5.34,0,0,0,2.59-1,32.87,32.87,0,0,0,3.89-2.89c.1-.1.1-.2.2-.3a26.64,26.64,0,0,0,2.79-3.19c.7-1,2.39-3,4.79-5.79a1,1,0,0,1,.9-.5c.8,0,1.2.3,1.2,1a.75.75,0,0,1-.1.5c-2.69,3.69-4.29,6.48-4.79,8.48,6.88-7,11.07-10.37,12.57-10.37a.75.75,0,0,1,.4-.1c.8,0,1.2.4,1.2,1.1,0,.1-.1.3-.1.4a15.68,15.68,0,0,1-1.8,2.39,38.66,38.66,0,0,0-3.29,4.39,6.87,6.87,0,0,0-1.3,3.59c0,1,.2,1.4.6,1.4q1.95,0,6.88-5.39a1.38,1.38,0,0,0,.3-.4c.1-.1.2-.2.2-.3a19.55,19.55,0,0,1,3.09-3.69c3.09-3,5.79-4.49,8.38-4.49,1,0,1.7.3,2,1a1.42,1.42,0,0,1,.2.6c.1.2.1.3.2.3l.6-.1c.1,0,.2,0,.3.2v2.89Z" transform="translate(-1.29 -20.53)" style="fill:#0e9cae"/></svg>